<svg version="1.1" id="Capa_1" xmlns="http://www.w3.org/2000/svg" xmlns:xlink="http://www.w3.org/1999/xlink" x="0" y="0" width="549.875" height="549.876" viewBox="0 0 549.875 549.876" xml:space="preserve"><path d="M340.535 104.42c13.881-13.874 24.125-29.07 30.735-45.594 6.389-16.524 9.584-31.5 9.584-44.945 0-.875-.056-1.989-.166-3.305a38.154 38.154 0 01-.165-3.305c-.22-.661-.495-1.873-.826-3.642-.33-1.756-.605-2.968-.826-3.629-38.776 9.033-66.311 25.337-82.613 48.911-16.524 23.789-25.117 52.1-25.778 84.927 14.755-1.328 26.211-3.188 34.37-5.612 11.897-3.977 23.788-11.903 35.685-23.806z"/><path d="M452.892 359.868c-15.202-21.799-22.803-46.365-22.803-73.696 0-24.891 7.154-47.688 21.48-68.404 7.712-11.23 20.27-24.229 37.675-38.997-11.456-14.094-22.913-25.104-34.369-33.048-20.711-14.303-44.175-21.481-70.387-21.481-15.643 0-34.7 3.758-57.173 11.243-21.592 7.497-37.344 11.23-47.253 11.23-7.49 0-22.692-3.305-45.606-9.914-23.133-6.61-42.625-9.915-58.489-9.915-37.895 0-69.18 15.863-93.85 47.595-24.896 32.167-37.344 73.36-37.344 123.587 0 53.312 16.193 108.716 48.581 166.226 32.822 57.057 65.979 85.582 99.468 85.582 11.236 0 25.771-3.745 43.617-11.23 17.846-7.271 33.482-10.905 46.922-10.905 14.321 0 30.949 3.525 49.902 10.569 20.043 7.05 35.466 10.569 46.262 10.569 28.194 0 56.506-21.586 84.927-64.762 18.507-27.534 32.057-55.08 40.649-82.614-19.607-5.942-37.007-19.823-52.209-41.635z"/></svg>