<svg version="1.1" id="Capa_1" xmlns="http://www.w3.org/2000/svg" xmlns:xlink="http://www.w3.org/1999/xlink" x="0" y="0" viewBox="0 0 463 463" xml:space="preserve"><path d="M175.5 0h-136C17.72 0 0 17.72 0 39.5v136C0 197.28 17.72 215 39.5 215h136c21.78 0 39.5-17.72 39.5-39.5v-136C215 17.72 197.28 0 175.5 0zM200 175.5c0 13.509-10.991 24.5-24.5 24.5h-136C25.991 200 15 189.009 15 175.5v-136C15 25.991 25.991 15 39.5 15h136c13.509 0 24.5 10.991 24.5 24.5v136zM423.5 0h-136C265.72 0 248 17.72 248 39.5v136c0 21.78 17.72 39.5 39.5 39.5h136c21.78 0 39.5-17.72 39.5-39.5v-136C463 17.72 445.28 0 423.5 0zM448 175.5c0 13.509-10.991 24.5-24.5 24.5h-136c-13.509 0-24.5-10.991-24.5-24.5v-136c0-13.509 10.991-24.5 24.5-24.5h136c13.509 0 24.5 10.991 24.5 24.5v136zM175.5 248h-136C17.72 248 0 265.72 0 287.5v136C0 445.28 17.72 463 39.5 463h136c21.78 0 39.5-17.72 39.5-39.5v-136c0-21.78-17.72-39.5-39.5-39.5zM200 423.5c0 13.509-10.991 24.5-24.5 24.5h-136C25.991 448 15 437.009 15 423.5v-136c0-13.509 10.991-24.5 24.5-24.5h136c13.509 0 24.5 10.991 24.5 24.5v136zM423.5 248h-136c-21.78 0-39.5 17.72-39.5 39.5v136c0 21.78 17.72 39.5 39.5 39.5h136c21.78 0 39.5-17.72 39.5-39.5v-136c0-21.78-17.72-39.5-39.5-39.5zM448 423.5c0 13.509-10.991 24.5-24.5 24.5h-136c-13.509 0-24.5-10.991-24.5-24.5v-136c0-13.509 10.991-24.5 24.5-24.5h136c13.509 0 24.5 10.991 24.5 24.5v136z"/></svg>