<svg version="1.1" id="Capa_1" xmlns="http://www.w3.org/2000/svg" xmlns:xlink="http://www.w3.org/1999/xlink" x="0" y="0" viewBox="0 0 290.07 290.07" xml:space="preserve"><path id="path11182" d="M95.176.002a4.668 4.668 0 00-4.143 2.264l-30 50a4.667 4.667 0 004.002 7.066h25v185.334a5.001 5.001 0 1010 .001V59.332h25a4.667 4.667 0 004.002-7.066l-30-50A4.668 4.668 0 0095.176.002zm100 0a4.668 4.668 0 00-4.143 2.264l-30 50a4.667 4.667 0 004.002 7.066h25v185.334a5.001 5.001 0 1010 .001V59.332h25a4.667 4.667 0 004.002-7.066l-30-50a4.668 4.668 0 00-3.861-2.264zM95.035 13.737L116.793 50H73.277l21.758-36.263zm100 0L216.793 50h-43.516l21.758-36.263zm-99.873 12.4a2.5 2.5 0 00-2.246 1.203l-10 16a2.5 2.5 0 104.168 2.762c.024-.037.048-.074.07-.112l10-16a2.5 2.5 0 00-1.992-3.853zm100 0a2.5 2.5 0 00-2.246 1.203l-10 16a2.5 2.5 0 104.168 2.762c.024-.037.048-.074.07-.112l10-16a2.5 2.5 0 00-1.992-3.853zM25.035 90.07c-13.764 0-25 11.236-25 25v150c0 13.764 11.236 25 25 25h240c13.764 0 25-11.236 25-25v-150c0-13.764-11.236-25-25-25h-20a5.001 5.001 0 10-.001 10h20c8.396 0 15 6.604 15 15v150c0 8.396-6.604 15-15 15h-240c-8.396 0-15-6.604-15-15v-150c0-8.396 6.604-15 15-15h20a5.001 5.001 0 10.001-10h-20z"/></svg>