<svg width="200" height="140" viewBox="0 0 200 140" xmlns="http://www.w3.org/2000/svg" xmlns:xlink="http://www.w3.org/1999/xlink"><defs><path id="path-1" d="M0 0h200v140H0z"/></defs><g id="Availability-Setup-Illustration" stroke="none" stroke-width="1" fill="none" fill-rule="evenodd"><g id="Illustration"><mask id="mask-2" fill="#fff"><use xlink:href="#path-1"/></mask><g id="Group" mask="url(#mask-2)"><g transform="rotate(-15 169.851 -40.628)"><path d="M85.03 15.88c0 8.273-6.726 14.98-15.023 14.98s-15.023-6.707-15.023-14.98C54.984 7.605 61.71.898 70.007.898S85.03 7.606 85.03 15.879z" id="Stroke-1" stroke="#444752" stroke-width="2" fill="none"/><path id="Fill-3" stroke="none" fill="#ECF4FF" fill-rule="evenodd" d="M63.397 34.455H65.8v-9.587h-2.403z"/><path id="Fill-5" stroke="none" fill="#ECF4FF" fill-rule="evenodd" d="M74.213 34.455h2.404v-9.587h-2.404z"/><path id="Fill-6" stroke="none" fill="#FFF" fill-rule="evenodd" d="M65.8 34.455h8.413v-9.587H65.8z"/><path id="Stroke-7" stroke="#444752" stroke-width="2" fill="none" d="M65.8 34.455h8.413v-9.587H65.8z"/><path id="Fill-8" stroke="none" fill="#FFF" fill-rule="evenodd" d="M106.174 45.28l4.134-5.892-3.447-2.405-4.133 5.893z"/><path id="Fill-9" stroke="none" fill="#C9E0FF" fill-rule="evenodd" d="M109.4 40.689l.908-1.302-3.447-2.404-1.423 2.039z"/><g id="Group-12" stroke="none" stroke-width="1" fill="none" fill-rule="evenodd" transform="translate(105.761 38.95)"><path d="M.413 6.33L4.546.438" id="Fill-10" fill="#FFF"/><path d="M.413 6.33L4.546.438" id="Stroke-11" stroke="#444752" stroke-width="2"/></g><path d="M121.085 93.179c0 33.094-26.904 59.922-60.092 59.922-33.187 0-60.092-26.828-60.092-59.922 0-33.094 26.905-59.922 60.092-59.922 33.188 0 60.092 26.828 60.092 59.922" id="Fill-13" stroke="none" fill="#C9E0FF" fill-rule="evenodd"/><path d="M121.085 93.179c0 33.094-26.904 59.922-60.092 59.922-33.187 0-60.092-26.828-60.092-59.922 0-33.094 26.905-59.922 60.092-59.922 33.188 0 60.092 26.828 60.092 59.922z" id="Stroke-14" stroke="#444752" stroke-width="2" fill="none"/><g id="Group-17" stroke="none" stroke-width="1" fill="none" fill-rule="evenodd" transform="translate(102.156 36.553)"><path d="M4.705.43L.572 6.324" id="Fill-15" fill="#FFF"/><path d="M4.705.43L.572 6.324" id="Stroke-16" stroke="#444752" stroke-width="2"/></g><path d="M130.099 93.179c0 33.094-26.905 59.922-60.092 59.922-33.188 0-60.092-26.828-60.092-59.922 0-33.094 26.904-59.922 60.092-59.922 33.187 0 60.092 26.828 60.092 59.922" id="Fill-18" stroke="none" fill="#FFF" fill-rule="evenodd"/><path d="M130.099 93.179c0 33.094-26.905 59.922-60.092 59.922-33.188 0-60.092-26.828-60.092-59.922 0-33.094 26.904-59.922 60.092-59.922 33.187 0 60.092 26.828 60.092 59.922z" id="Stroke-19" stroke="#444752" stroke-width="2" fill="none"/><path d="M70.007 45.241c-25.798 0-46.845 20.265-48.017 45.702C23.157 67.99 42.191 49.735 65.5 49.735c24.061 0 43.567 19.45 43.567 43.444 0 23.993-19.506 43.444-43.567 43.444-23.309 0-42.343-18.254-43.51-41.208 1.172 25.437 22.219 45.702 48.017 45.702 26.55 0 48.073-21.463 48.073-47.938S96.557 45.241 70.007 45.241" id="Fill-20" stroke="none" fill="#C9E0FF" fill-rule="evenodd"/><path d="M77.218 24.868H62.796c-1.983 0-3.606-1.618-3.606-3.596V16.48c0-1.978 1.623-3.596 3.606-3.596h14.422a3.61 3.61 0 013.605 3.596v4.793a3.61 3.61 0 01-3.605 3.596" id="Fill-21" stroke="none" fill="#C9E0FF" fill-rule="evenodd"/><path d="M77.218 24.868H62.796c-1.983 0-3.606-1.618-3.606-3.596V16.48c0-1.978 1.623-3.596 3.606-3.596h14.422a3.61 3.61 0 013.605 3.596v4.793a3.61 3.61 0 01-3.605 3.596z" id="Stroke-22" stroke="#444752" stroke-width="2" fill="none"/><path d="M110.308 39.387l1.723 1.202a1.81 1.81 0 002.51-.442l1.379-1.964a1.8 1.8 0 00-.444-2.504l-6.894-4.808a1.812 1.812 0 00-2.51.443l-1.379 1.964a1.8 1.8 0 00.444 2.503l1.724 1.202 3.447 2.404z" id="Fill-23" stroke="none" fill="#C9E0FF" fill-rule="evenodd"/><path d="M110.308 39.387l1.723 1.202a1.81 1.81 0 002.51-.442l1.379-1.964a1.8 1.8 0 00-.444-2.504l-6.894-4.808a1.812 1.812 0 00-2.51.443l-1.379 1.964a1.8 1.8 0 00.444 2.503l1.724 1.202 3.447 2.404z" id="Stroke-24" stroke="#444752" stroke-width="2" fill="none"/><path id="Fill-25" stroke="none" fill="#C9E0FF" fill-rule="evenodd" d="M73.308 27.252l-6.589 1.199v-2.697h6.589z"/><path d="M85.715 105.85L73.47 97.3V70.408c0-1.978-1.623-3.596-3.606-3.596a3.61 3.61 0 00-3.605 3.596V99.17a3.532 3.532 0 00.23 1.249l.023.064a3.699 3.699 0 00.158.345c.023.044.048.087.073.13.038.067.077.132.12.197l.04.057c.057.082.116.162.18.24l.004.004c.202.245.437.469.709.659l13.782 9.625a3.623 3.623 0 005.022-.882 3.6 3.6 0 00-.885-5.008" id="Fill-26" stroke="none" fill="#444752" fill-rule="evenodd"/><path d="M70.007 141.117c-26.55 0-48.074-21.463-48.074-47.938s21.524-47.938 48.074-47.938c26.55 0 48.073 21.463 48.073 47.938" id="Stroke-27" stroke="#444752" stroke-width="2" fill="none" stroke-linecap="round"/></g></g></g></g></svg>