<svg height="512pt" viewBox="0 0 512 512" width="512pt" xmlns="http://www.w3.org/2000/svg"><path d="M457.004 0H54.996C24.672 0 0 24.672 0 54.996v402.008C0 487.328 24.672 512 54.996 512h402.008C487.328 512 512 487.328 512 457.004V54.996C512 24.672 487.328 0 457.004 0zM54.996 30h402.008C470.785 30 482 41.215 482 54.996V121H30V54.996C30 41.215 41.215 30 54.996 30zm402.008 452H54.996C41.215 482 30 470.785 30 457.004V151h452v306.004C482 470.785 470.785 482 457.004 482zm0 0"/><path d="M451 76c0 8.285-6.715 15-15 15s-15-6.715-15-15 6.715-15 15-15 15 6.715 15 15zm-60 0c0 8.285-6.715 15-15 15s-15-6.715-15-15 6.715-15 15-15 15 6.715 15 15zm-60 0c0 8.285-6.715 15-15 15s-15-6.715-15-15 6.715-15 15-15 15 6.715 15 15zm105 105H76c-8.285 0-15 6.715-15 15v90c0 8.285 6.715 15 15 15h360c8.285 0 15-6.715 15-15v-90c0-8.285-6.715-15-15-15zm-15 90H91v-60h330zm-195 60H76c-8.285 0-15 6.715-15 15v90c0 8.285 6.715 15 15 15h150c8.285 0 15-6.715 15-15v-90c0-8.285-6.715-15-15-15zm-15 90H91v-60h120zm225-90H286c-8.285 0-15 6.715-15 15v90c0 8.285 6.715 15 15 15h150c8.285 0 15-6.715 15-15v-90c0-8.285-6.715-15-15-15zm-15 90H301v-60h120zm0 0"/></svg>