<svg version="1.1" id="Capa_1" xmlns="http://www.w3.org/2000/svg" xmlns:xlink="http://www.w3.org/1999/xlink" x="0" y="0" viewBox="0 0 512.031 512.031" xml:space="preserve"><path d="M384.026 34.399C324.826.223 255.834-8.865 189.786 8.831 123.706 26.527 68.506 68.863 34.33 128.095c-70.592 122.24-28.544 279.136 93.696 349.696 40.192 23.2 84.16 34.24 127.552 34.24 88.544 0 174.784-45.92 222.144-127.936 70.56-122.24 28.512-279.136-93.696-349.696zm65.984 333.696c-61.792 106.944-199.072 143.744-305.984 81.984C37.05 388.319.282 251.071 62.042 144.095c29.92-51.808 78.208-88.864 136.032-104.352 19.296-5.152 38.88-7.712 58.304-7.712 38.848 0 77.152 10.144 111.648 30.08 106.912 61.76 143.712 199.008 81.984 305.984z"/><path d="M364.186 227.103c-7.712-28.896-26.24-53.056-52.16-68-53.504-30.912-122.08-12.512-152.992 40.992-30.88 53.472-12.48 122.112 40.992 152.992 17.6 10.176 36.8 15.008 55.808 15.008 38.72 0 76.448-20.096 97.152-56 14.976-25.92 18.944-56.096 11.2-84.992zm-38.88 68.992c-10.688 18.496-27.936 31.744-48.608 37.28s-42.208 2.656-60.672-7.968c-38.208-22.08-51.328-71.104-29.28-109.312 10.688-18.496 27.936-31.744 48.576-37.28s42.208-2.688 60.704 8c18.496 10.688 31.712 27.936 37.248 48.576 5.536 20.64 2.688 42.208-7.968 60.704z"/><path transform="rotate(-60.007 284.172 399.347)" d="M174.167 383.354H394.17v32H174.167z"/><path transform="rotate(-30.006 117.881 208.837)" d="M101.885 98.87h32.001v219.946h-32.001z"/><path d="M256.03 144.09h219.94v32H256.03z"/></svg>