<svg height="512" viewBox="0 0 64 64" width="512" xmlns="http://www.w3.org/2000/svg"><path d="M55 10H36V7a5.006 5.006 0 00-5-5H9a5.006 5.006 0 00-5 5v42a5.006 5.006 0 005 5h19v3a5.006 5.006 0 005 5h22a5.006 5.006 0 005-5V15a5.006 5.006 0 00-5-5zm-16 2h10v2H39zM15 4h10v2H15zM9 52a3 3 0 01-3-3V7a3 3 0 013-3h4v2a2 2 0 002 2h10a2 2 0 002-2V4h4a3 3 0 013 3v3h-1a5.006 5.006 0 00-5 5v19h-4a3 3 0 01-3-3v-8h-2v8a5.006 5.006 0 005 5h4v16zm49 5a3 3 0 01-3 3H33a3 3 0 01-3-3V36h11.586l-3.293 3.293 1.414 1.414 5-5a1 1 0 000-1.414l-5-5-1.414 1.414L41.586 34H30V15a3 3 0 013-3h4v2a2 2 0 002 2h10a2 2 0 002-2v-2h4a3 3 0 013 3z"/><path d="M19 19h2v2h-2zm4 0h2v2h-2zm-8 0h2v2h-2z"/></svg>