<svg width="62" height="50" viewBox="0 0 62 50" xmlns="http://www.w3.org/2000/svg" xmlns:xlink="http://www.w3.org/1999/xlink"><g id="FINAL" stroke="none" stroke-width="1" fill="none" fill-rule="evenodd"><g id="Follow-Ups" transform="translate(-19 -25)"><g id="Group-11-Copy-5" transform="translate(20 26)"><path d="M0 20.748c0-1.656 1.213-3.596 2.689-4.321L30 3l27.308 13.427c1.484.73 2.688 2.669 2.688 4.321v23.999c0 1.656-1.337 3-2.996 3H2.996a3 3 0 01-2.996-3V20.748z" id="Rectangle-2-Copy-4" stroke="#666A73" stroke-width="1.5" stroke-linejoin="round"/><g id="Group-9-Copy-2" transform="translate(7.5)"><g id="Group-8" fill="#FFF" stroke="#666A73" stroke-width="1.5"><path d="M0 4.492A3.995 3.995 0 013.993.5h37.01a4 4 0 013.994 3.992v33.263a3.995 3.995 0 01-3.993 3.992H3.994A4 4 0 010 37.755V4.492z" id="Rectangle-7"/></g><g id="Group-7-Copy-3" transform="translate(12 6)"><circle id="Oval-117" fill="#1300FF" opacity=".503" cx="10.138" cy="10.452" r="10.043"/><path d="M16.361 9.775h-1.177a5.51 5.51 0 00-1.492-3.167 5.26 5.26 0 00-1.674-1.178 5.101 5.101 0 00-4.101 0 5.248 5.248 0 00-1.674 1.18 5.493 5.493 0 00-1.128 1.748A5.674 5.674 0 004.7 10.5c0 .742.14 1.463.414 2.14a5.501 5.501 0 001.13 1.75 5.258 5.258 0 001.673 1.178 5.05 5.05 0 002.05.433c.71 0 1.4-.145 2.051-.433.423-.186.621-.696.443-1.138a.82.82 0 00-1.09-.462 3.494 3.494 0 01-3.952-.807 3.777 3.777 0 01-.773-1.197 3.891 3.891 0 01-.283-1.464c0-.509.096-1.001.283-1.465.182-.448.441-.85.772-1.196a3.503 3.503 0 015.098 0 3.767 3.767 0 01.988 1.937h-1.2c-.3 0-.453.375-.245.6l2.03 2.187a.328.328 0 00.486 0l2.029-2.187c.208-.225.056-.6-.243-.6" id="Fill-1" fill="#FFF"/></g></g><path id="Path-5-Copy-2" stroke="#666A73" stroke-width=".75" fill="#FFF" d="M.375 19.998l18.805 8.866 5.943 3.134h9.75l25.123-12v26.249l-1.125 1.5H1.5l-1.5-1.5z"/><path d="M.75 46.996l26.96-17.281s1.09-.716 2.288-.717c1.198-.001 2.312.713 2.312.713l27.31 17.285" id="Path-4-Copy-2" stroke="#666A73" stroke-width=".75" fill="#FFF" stroke-linejoin="round"/><path d="M59.996 19.998v25.489a2.248 2.248 0 01-2.243 2.255H2.243A2.247 2.247 0 010 45.487V19.998" id="Rectangle-2-Copy-5" stroke="#666A73" stroke-width="1.5" stroke-linejoin="round"/></g></g></g></svg>