<?xml version="1.0" encoding="UTF-8"?>
<svg width="62px" height="50px" viewBox="0 0 62 50" version="1.1" xmlns="http://www.w3.org/2000/svg" xmlns:xlink="http://www.w3.org/1999/xlink">
    <!-- Generator: Sketch 54.1 (76490) - https://sketchapp.com -->
    <title>Group 11 Copy 5</title>
    <desc>Created with Sketch.</desc>
    <g id="FINAL" stroke="none" stroke-width="1" fill="none" fill-rule="evenodd">
        <g id="Follow-Ups" transform="translate(-19.000000, -25.000000)">
            <g id="Group-11-Copy-5" transform="translate(20.000000, 26.000000)">
                <path d="M0,20.7483007 C0,19.0915509 1.21319175,17.152065 2.68870147,16.4266803 L30,3 L57.3075059,16.4266803 C58.7922285,17.1566955 59.995834,19.0957149 59.995834,20.7483007 L59.995834,44.746596 C59.995834,46.4033458 58.6586171,47.7464069 57.0001046,47.7464069 L2.99572942,47.7464069 C1.34123375,47.7464069 0,46.3991818 0,44.746596 L0,20.7483007 Z" id="Rectangle-2-Copy-4" stroke="#666A73" stroke-width="1.5" stroke-linejoin="round"></path>
                <g id="Group-9-Copy-2" transform="translate(7.499479, 0.000000)">
                    <g id="Group-8" fill="#FFFFFF" stroke="#666A73" stroke-width="1.5">
                        <path d="M0,4.49232256 C0,2.28736618 1.79169825,0.499895851 3.99317253,0.499895851 L41.003703,0.499895851 C43.2090713,0.499895851 44.9968755,2.29875617 44.9968755,4.49232256 L44.9968755,37.754605 C44.9968755,39.9595614 43.2051773,41.7470317 41.003703,41.7470317 L3.99317253,41.7470317 C1.78780424,41.7470317 0,39.9481714 0,37.754605 L0,4.49232256 Z" id="Rectangle-7"></path>
                    </g>
                    <g id="Group-7-Copy-3" transform="translate(12.000000, 6.000000)">
                        <circle id="Oval-117" fill="#1300FF" opacity="0.502943841" cx="10.1380774" cy="10.4521839" r="10.0434783"></circle>
                        <path d="M16.3610844,9.77525103 L15.1844404,9.77525103 C15.1234457,9.28769395 15.0053377,8.81287589 14.8212445,8.3577454 C14.5556402,7.70284391 14.1763638,7.1139537 13.6922874,6.60844618 C13.2076565,6.10351771 12.6453959,5.70744996 12.0182591,5.43008673 C10.7185167,4.85683077 9.21693723,4.85625173 7.91664034,5.43066577 C7.29005805,5.70744996 6.72724298,6.10351771 6.24261208,6.60902523 C5.75909017,7.1139537 5.37925931,7.70284391 5.11476395,8.35716636 C4.83973314,9.03580876 4.69999975,9.7561425 4.69999975,10.499059 C4.69999975,11.2413966 4.83973314,11.9617303 5.11420946,12.6397936 C5.37925931,13.2946951 5.75909017,13.8835854 6.24316658,14.3890929 C6.72724298,14.8940213 7.29005805,15.2900891 7.91664034,15.5674523 C8.56762053,15.8546593 9.25741555,16 9.96772698,16 C10.6774839,16 11.3672789,15.8546593 12.0182591,15.5674523 C12.4413408,15.3809994 12.6392964,14.8714385 12.4607482,14.4290471 C12.2816455,13.9872347 11.7942421,13.7816732 11.3706059,13.966968 C10.4811918,14.3595615 9.4531532,14.3589825 8.56484804,13.9675471 C8.1362214,13.7776199 7.75084556,13.5060471 7.4187015,13.1603564 C7.08711193,12.8140866 6.82816155,12.4116494 6.64573184,11.9628884 C6.45886614,11.5002303 6.36349256,11.0074618 6.36349256,10.499059 C6.36349256,9.99007725 6.45886614,9.4978878 6.64628633,9.03407162 C6.82816155,8.58588969 7.08711193,8.18345243 7.418147,7.83776172 C7.75084556,7.49149197 8.1362214,7.2199192 8.56429355,7.03057102 C9.45259871,6.63913564 10.4828553,6.63971469 11.3700514,7.02999197 C11.7986781,7.2199192 12.1846084,7.49149197 12.516198,7.83718268 C12.8477875,8.18345243 13.1072924,8.58588969 13.2891676,9.03465066 C13.3862047,9.27437588 13.4571804,9.5216287 13.5043127,9.77525103 L12.3032709,9.77525103 C12.0038422,9.77525103 11.8513553,10.1498941 12.0592919,10.3745641 L14.0881987,12.5622014 C14.2218326,12.706384 14.4419681,12.706384 14.5750476,12.5622014 L16.6039543,10.3745641 C16.8118909,10.1498941 16.6599586,9.77525103 16.3610844,9.77525103" id="Fill-1" fill="#FFFFFF"></path>
                    </g>
                </g>
                <polygon id="Path-5-Copy-2" stroke="#666A73" stroke-width="0.75" fill="#FFFFFF" points="0.374973963 19.9983336 19.1799503 28.8635554 25.1232555 31.9975004 34.8725785 31.9975004 59.995834 19.9983336 59.995834 46.246511 58.8709121 47.7464069 1.49989585 47.7464069 0 46.246511"></polygon>
                <path d="M0.749947925,46.9964597 L27.7094772,29.7147102 C27.7094772,29.7147102 28.7993388,28.9985843 29.997917,28.9977095 C31.1964952,28.9968347 32.31039,29.7113521 32.31039,29.7113521 L59.6208601,46.9964597" id="Path-4-Copy-2" stroke="#666A73" stroke-width="0.75" fill="#FFFFFF" stroke-linejoin="round"></path>
                <path d="M59.995834,19.9983336 L59.995834,45.486812 C59.995834,46.7320591 58.9921452,47.7415313 57.7534242,47.7415313 L2.24240986,47.7415313 C1.00396109,47.7415313 0,46.7348691 0,45.486812 L0,19.9983336" id="Rectangle-2-Copy-5" stroke="#666A73" stroke-width="1.5" stroke-linejoin="round"></path>
            </g>
        </g>
    </g>
</svg>