<svg xmlns="http://www.w3.org/2000/svg" id="Dreamforce_2016" data-name="Dreamforce 2016" viewBox="0 0 100 100"><defs><style>.cls-1{fill:#2977bb}.cls-2{fill:#fff}</style></defs><g id="Microsoft_Exchange" data-name="Microsoft Exchange"><g id="SVG_Icon" data-name="SVG Icon"><path d="M51.1 3.1c1.9-.3 3.7-.7 5.6-.9v17.3h40a3.1 3.1 0 013.1 3.4v53.8c0 1.2.2 2.6-.6 3.6a3.2 3.2 0 01-2.9 1.2H56.8v16.3c-7.8-1.1-15.5-2.7-23.3-3.9l-33-5.8c-.6 0-.4-.8-.5-1.2V12.6a.7.7 0 01.7-.8z" class="cls-1"/><path d="M56.8 22.9h39.8v55.4H56.8V74c1.6-.1 3.5.4 4.8-.7a40.8 40.8 0 004.2-4.9 68.1 68.1 0 008.4-13.1l-1-.9c-.6-.1-.9.4-1.3.7L60.7 66.6c-.9 1.2-2.6.6-3.9.7V51.1a54.2 54.2 0 007.7 4.4c.3-.4 1.3-1.1.7-1.6l-8.4-8.3V33.7a25.3 25.3 0 014.5.1 16.5 16.5 0 013 2.7h.7c.7-1.2 2.1-2.3 2.1-3.8-1.5-1.7-3.3-3.1-4.9-4.7s-3.6-.8-5.4-.9v-4.2z" class="cls-2"/><path d="M74.9 29.8c1.1-1.2 2.2-2.8 3.9-2.8h11.7c.9 0 2 .4 2.1 1.4.1 4.4 0 8.7 0 13.1.1 1.2-.9 1.9-1.6 2.7s-2.6 2.9-4.1 4.2-2.6-1.6-4-2.3c.7-1.4 2.1-2.2 2.9-3.5.3-2.9.1-5.9.1-8.8-2.3-.1-4.5-.1-6.8 0s-1.4.7-2 1.2l-11 11.2a1.6 1.6 0 01-1.5.5c-.2-.6-.5-1.3-.1-1.8a86 86 0 0110.4-15.1z" class="cls-1"/><path d="M19.7 33.7l14.1-1.1v6.5c-2.9 0-5.7 0-8.6.2v7.4h8.6v6.4l-8.6-.2v7.5l9.7.6c.1 2.2 0 4.4 0 6.5L19.7 66V33.7z" class="cls-2"/><path d="M72.9 46.8l1-1.3a72.2 72.2 0 0113.9 9 31.5 31.5 0 014.3 3.8c.7.8.6 2 .6 3-.1 3.8.1 7.6 0 11.3 0 1.1-1.2 1.5-2.1 1.4H78.2c-1.3.1-2.1-1.2-3-1.9a37.5 37.5 0 01-3.8-3.7c.1-1.5 1.5-2.5 2.2-3.8h.6c1.3 1 2.2 2.9 4 2.8H86c0-2.3.1-4.5 0-6.8s-.8-1.4-1.3-2z" class="cls-1"/></g></g></svg>