<svg width="220" height="180" viewBox="0 0 220 180" xmlns="http://www.w3.org/2000/svg"><g fill="none" fill-rule="evenodd"><path d="M6 0h208a6 6 0 016 6v8H0V6a6 6 0 016-6z" fill="#D8D8D8"/><circle stroke="#979797" fill="#FFF" cx="10.5" cy="7.5" r="2.5"/><circle stroke="#979797" fill="#FFF" cx="18.5" cy="7.5" r="2.5"/><circle stroke="#979797" fill="#FFF" cx="26.5" cy="7.5" r="2.5"/><rect stroke="#979797" stroke-width="2" x="1" y="1" width="218" height="178" rx="5"/><path d="M2.5 14h216.535" stroke="#979797" stroke-linecap="square"/><path fill="#F3F3F3" d="M13 14.5h192v18H13zM13 158h192v20H13z"/><g transform="translate(13 37)"><rect stroke="#C7C7C7" fill="#FFF" x=".5" y=".5" width="191" height="115" rx="3"/><g transform="translate(73 11)"><rect stroke="#E5E5E5" fill="#FFF" x=".5" y=".5" width="108" height="97" rx="4"/><g transform="translate(7 14)"><circle fill="#00A2FF" cx="50" cy="2" r="2"/><circle fill="#D8D8D8" cx="44" cy="2" r="2"/><rect fill="#D8D8D8" y="61" width="45" height="3" rx="1.5"/><rect fill="#D8D8D8" width="31" height="3" rx="1.5"/></g><g transform="translate(7 55)"><circle fill="#00A2FF" cx="18" cy="2" r="2"/><circle fill="#00A2FF" cx="26" cy="2" r="2"/><circle fill="#00A2FF" cx="34" cy="2" r="2"/><circle fill="#00A2FF" cx="42" cy="2" r="2"/><circle fill="#D8D8D8" cx="50" cy="2" r="2"/><circle fill="#D8D8D8" cx="2" cy="2" r="2"/><circle fill="#00A2FF" cx="10" cy="2" r="2"/></g><g transform="translate(7 64)"><circle fill="#00A2FF" cx="18" cy="2" r="2"/><circle fill="#00A2FF" cx="26" cy="2" r="2"/><circle fill="#00A2FF" cx="34" cy="2" r="2"/><circle fill="#D8D8D8" cx="2" cy="2" r="2"/><circle fill="#00A2FF" cx="10" cy="2" r="2"/></g><g fill="#D8D8D8" transform="translate(7 21)"><rect width="4" height="3" rx="1.5"/><rect x="8" width="4" height="3" rx="1.5"/><rect x="16" width="4" height="3" rx="1.5"/><rect x="24" width="4" height="3" rx="1.5"/><rect x="32" width="4" height="3" rx="1.5"/><rect x="40" width="4" height="3" rx="1.5"/><rect x="48" width="4" height="3" rx="1.5"/></g><g transform="translate(7 46)"><circle fill="#00A2FF" cx="18" cy="2" r="2"/><circle fill="#00A2FF" cx="26" cy="2" r="2"/><circle fill="#00A2FF" cx="34" cy="2" r="2"/><circle fill="#00A2FF" cx="42" cy="2" r="2"/><circle fill="#D8D8D8" cx="50" cy="2" r="2"/><circle fill="#D8D8D8" cx="2" cy="2" r="2"/><circle fill="#00A2FF" cx="10" cy="2" r="2"/></g><g transform="translate(31 28)" fill="#D8D8D8"><circle cx="2" cy="2" r="2"/><circle cx="10" cy="2" r="2"/><circle cx="18" cy="2" r="2"/><circle cx="26" cy="2" r="2"/></g><g transform="translate(7 35)"><circle stroke="#00A2FF" fill="#00A2FF" cx="18" cy="4" r="3.5"/><circle fill="#00A2FF" cx="26" cy="4" r="2"/><circle fill="#00A2FF" cx="34" cy="4" r="2"/><circle fill="#00A2FF" cx="42" cy="4" r="2"/><circle fill="#D8D8D8" cx="50" cy="4" r="2"/><circle fill="#D8D8D8" cx="2" cy="4" r="2"/><circle fill="#D8D8D8" cx="10" cy="4" r="2"/></g><rect stroke="#CECECE" fill="#FFF" x="66.5" y="21.5" width="38" height="7" rx="2"/><rect fill="#D8D8D8" x="66" y="14" width="26" height="4" rx="2"/><rect stroke="#CECECE" fill="#FFF" x="66.5" y="31.5" width="38" height="7" rx="2"/><rect stroke="#CECECE" fill="#FFF" x="66.5" y="41.5" width="38" height="7" rx="2"/><rect stroke="#CECECE" fill="#FFF" x="66.5" y="51.5" width="38" height="7" rx="2"/><rect stroke="#CECECE" fill="#FFF" x="66.5" y="61.5" width="38" height="7" rx="2"/><rect stroke="#CECECE" fill="#FFF" x="66.5" y="71.5" width="38" height="7" rx="2"/><rect stroke="#CECECE" fill="#FFF" x="66.5" y="81.5" width="38" height="7" rx="2"/><rect fill="#D8D8D8" x="7" y="6" width="42" height="4" rx="2"/></g><g transform="translate(11 8)" fill="#D8D8D8"><circle cx="4.5" cy="4.5" r="4.5"/><rect y="13" width="48" height="8" rx="4"/><rect y="25" width="35" height="3" rx="1.5"/><rect y="33" width="55" height="3" rx="1.5"/><rect y="41" width="55" height="3" rx="1.5"/><rect y="49" width="32" height="3" rx="1.5"/></g></g></g></svg>