<svg width="62" height="50" viewBox="0 0 62 50" xmlns="http://www.w3.org/2000/svg" xmlns:xlink="http://www.w3.org/1999/xlink"><g id="Joint-Calendar---Updated" stroke="none" stroke-width="1" fill="none" fill-rule="evenodd"><g id="Invitee-Notifications---Reminder---On" transform="translate(-289 -468)"><g id="Reminder" transform="translate(290 469)"><path d="M0 20.748c0-1.656 1.213-3.596 2.689-4.321L30 3l27.308 13.427c1.484.73 2.688 2.669 2.688 4.321v23.999c0 1.656-1.337 3-2.996 3H2.996a3 3 0 01-2.996-3V20.748z" id="Rectangle-2-Copy-4" stroke="#666A73" stroke-width="1.5" stroke-linejoin="round"/><g id="Group-9-Copy-2" transform="translate(7.5)"><g id="Group-8" stroke="#666A73" stroke-width="1.5" fill="#FFF"><rect id="Rectangle-7" x="0" y=".5" width="44.997" height="41.247" rx="4"/></g><g id="Group-7-Copy-3" transform="translate(12.263 5.5)"><ellipse id="Oval-117" fill="#00A2FF" opacity=".503" cx="10.249" cy="10.6" rx="10.154" ry="10.185"/><g id="Group-12" transform="translate(5.173 5.044)" fill="#FFF"><path d="M1.53 7.438v-2.5a3.756 3.756 0 013.75-3.76 3.756 3.756 0 013.75 3.76v2.5c.532.676.844 1.5.844 2.39H.687c0-.89.312-1.714.844-2.39z" id="Combined-Shape"/><ellipse id="Oval-4" cx="5.281" cy="9.829" rx="1.125" ry="1.128"/><ellipse id="Oval-4-Copy" cx="5.281" cy="2.053" rx="1.5" ry="1.505"/></g></g></g><path id="Path-5-Copy-2" stroke="#666A73" stroke-width=".75" fill="#FFF" d="M.375 19.998l18.805 8.866 5.943 3.134h9.75l25.123-12v26.249l-1.125 1.5H1.5l-1.5-1.5z"/><path d="M.75 46.996l26.96-17.281s1.09-.716 2.288-.717c1.198-.001 2.312.713 2.312.713l27.31 17.285" id="Path-4-Copy-2" stroke="#666A73" stroke-width=".75" stroke-linejoin="round" fill="#FFF"/><path d="M59.996 19.998v25.489a2.248 2.248 0 01-2.243 2.255H2.243A2.247 2.247 0 010 45.487V19.998" id="Rectangle-2-Copy-5" stroke="#666A73" stroke-width="1.5" stroke-linejoin="round"/></g></g></g></svg>