<svg width="62" height="54" viewBox="0 0 62 54" xmlns="http://www.w3.org/2000/svg" xmlns:xlink="http://www.w3.org/1999/xlink"><defs><path id="path-1" d="M12.749 12.749h34.498v29.248H12.749z"/><mask id="mask-2" maskContentUnits="userSpaceOnUse" maskUnits="objectBoundingBox" x="0" y="0" width="34.498" height="29.248" fill="#fff"><use xlink:href="#path-1"/></mask></defs><g id="Joint-Calendar---Updated" stroke="none" stroke-width="1" fill="none" fill-rule="evenodd"><g id="Invitee-Notifications---Reminder---On" transform="translate(-289 -324)"><g id="Calendar-Invitation" transform="translate(290 325)"><path d="M0 24.748c0-1.656 1.121-3.728 2.519-4.637L29.998 2.25l27.479 17.86c1.391.904 2.519 2.985 2.519 4.637v23.999c0 1.656-1.337 3-2.996 3H2.996a3 3 0 01-2.996-3V24.748z" id="Rectangle-2-Copy-4" stroke="#666A73" stroke-width="1.5" stroke-linejoin="round"/><g id="Group-9-Copy-2" transform="translate(7.5)"><g id="Group-8"><rect id="Rectangle-7" stroke="#666A73" stroke-width="1.5" fill="#FFF" x="0" y="1.5" width="44.997" height="41.247" rx="4"/><g id="Group-4" transform="translate(37.247)"><path d="M1.125 4.125V0" id="Path-3-Copy" stroke="#666A73" stroke-width=".75" stroke-linecap="round"/><circle id="Oval-Copy" fill="#666A73" cx="1.125" cy="4.875" r="1.125"/></g><g id="Group-6" transform="translate(5.5)"><path d="M1.125 4.125V0" id="Path-3-Copy-2" stroke="#666A73" stroke-width=".75" stroke-linecap="round"/><circle id="Oval-Copy-2" fill="#666A73" cx="1.125" cy="4.875" r="1.125"/></g><g id="Group-5" transform="translate(26.665)"><path d="M1.5 4.125V0" id="Path-3-Copy-3" stroke="#666A73" stroke-width=".75" stroke-linecap="round"/><circle id="Oval-Copy-3" fill="#666A73" cx="1.5" cy="4.875" r="1.125"/></g><g id="Group-5-Copy" transform="translate(16.082)"><path d="M1.5 4.125V0" id="Path-3-Copy-3" stroke="#666A73" stroke-width=".75" stroke-linecap="round"/><circle id="Oval-Copy-3" fill="#666A73" cx="1.5" cy="4.875" r="1.125"/></g><path d="M.375 7.687h44.248" id="Path-2" stroke="#666A73" stroke-width=".75"/></g></g><path id="Rectangle-2" fill="#F6F6F6" d="M12.749 17.999h24.748v5.25H12.749z"/><path id="Rectangle-2-Copy" fill="#F6F6F6" d="M12.749 12.749h34.498v5.25H12.749z"/><use id="Rectangle-8" stroke="#E8E8E8" mask="url(#mask-2)" stroke-width="1.5" xlink:href="#path-1"/><path d="M12.75 18.28h34.498" id="Path-4" stroke="#E8E8E8" stroke-width=".75"/><path d="M12.75 23.53h34.498" id="Path-4-Copy-3" stroke="#E8E8E8" stroke-width=".75"/><path d="M27.494 12.75v24" id="Path-5" stroke="#E8E8E8" stroke-width=".75"/><path d="M22.673 12.75v24" id="Path-5-Copy-8" stroke="#E8E8E8" stroke-width=".75"/><path d="M17.851 12.75v24" id="Path-5-Copy-9" stroke="#E8E8E8" stroke-width=".75"/><path d="M32.315 12.75v24" id="Path-5-Copy-3" stroke="#E8E8E8" stroke-width=".75"/><path d="M37.136 12.75v24" id="Path-5-Copy-6" stroke="#E8E8E8" stroke-width=".75"/><path d="M41.957 12.75v24" id="Path-5-Copy-7" stroke="#E8E8E8" stroke-width=".75"/><path d="M12.75 28.78h34.498" id="Path-4-Copy-6" stroke="#E8E8E8" stroke-width=".75"/><path d="M12.75 33.279h34.498" id="Path-4-Copy-7" stroke="#E8E8E8" stroke-width=".75"/><path id="Path-5-Copy-2" stroke="#666A73" stroke-width=".75" fill="#FFF" d="M.375 23.998l18.805 8.866 5.943 3.134h9.75l25.123-12v26.249l-1.125 1.5H1.5l-1.5-1.5z"/><path d="M.75 50.996l26.96-17.281s1.09-.716 2.288-.717c1.198-.001 2.312.713 2.312.713l27.31 17.285" id="Path-4-Copy-2" stroke="#666A73" stroke-width=".75" stroke-linejoin="round" fill="#FFF"/><path d="M59.996 23.998v25.489a2.248 2.248 0 01-2.243 2.255H2.243A2.247 2.247 0 010 49.487V23.998" id="Rectangle-2-Copy-5" stroke="#666A73" stroke-width="1.5" stroke-linejoin="round"/><path id="Rectangle-2-Copy-6" fill="#00A2FF" d="M36.855 17.999h5.384v5.799h-5.384z"/></g></g></g></svg>