<svg height="32" id="Layer_1" version="1.1" viewBox="0 0 32 32" width="32" xml:space="preserve" xmlns="http://www.w3.org/2000/svg" xmlns:xlink="http://www.w3.org/1999/xlink"><path d="M2-114h30v2H0v-32h4v2H2v4h2v2H2v4h2v2H2v4h2v2H2v4h2v2H2v4zm22.916-16.962c-.115 1.767-.26 3.962-.916 3.962-1.17 0-1.49-.636-2.051-2.316C21.43-130.871 20.721-133 18-133c-2.848 0-3.451 3.633-3.985 6.836-.384 2.301-.86 5.164-2.015 5.164-2.041 0-2.996-5.371-3-9H7c0 1.125.142 11 5 11 2.849 0 3.452-3.631 3.986-6.837.385-2.301.86-5.163 2.014-5.163 1.17 0 1.49.635 2.051 2.315C20.571-127.129 21.28-125 24-125c2.529 0 2.726-2.966 2.912-5.828.314-4.785.861-8.172 5.088-8.172v-2c-6.428 0-6.822 6.042-7.084 10.038z" transform="translate(0 144)"/></svg>