<svg xmlns="http://www.w3.org/2000/svg" height="512pt" version="1.1" viewBox="0 -1 512.00105 512" width="512pt">
<g id="surface1">
<path d="M 364.683594 177.046875 L 332.082031 144.445312 C 320.242188 132.601562 301.042969 132.601562 289.199219 144.445312 L 8.882812 424.761719 C -2.960938 436.605469 -2.960938 455.804688 8.882812 467.644531 L 41.484375 500.246094 C 53.324219 512.089844 72.523438 512.089844 84.367188 500.246094 L 364.683594 219.929688 C 376.527344 208.085938 376.527344 188.886719 364.683594 177.046875 Z M 364.683594 177.046875 " style=" stroke:none;fill-rule:nonzero;fill:rgb(98.039216%,43.921569%,69.803922%);fill-opacity:1;" />
<path d="M 33.292969 449.171875 L 313.609375 168.855469 C 325.453125 157.011719 344.652344 157.011719 356.492188 168.855469 L 332.082031 144.445312 C 320.242188 132.601562 301.042969 132.601562 289.199219 144.445312 L 8.882812 424.761719 C -2.960938 436.605469 -2.960938 455.804688 8.882812 467.644531 L 33.292969 492.054688 C 21.449219 480.214844 21.449219 461.015625 33.292969 449.171875 Z M 33.292969 449.171875 " style=" stroke:none;fill-rule:nonzero;fill:rgb(86.666667%,12.941176%,35.686275%);fill-opacity:1;" />
<path d="M 245.296875 118.976562 L 269.703125 108.867188 C 290.058594 100.4375 290.058594 71.597656 269.703125 63.164062 L 245.296875 53.058594 C 239.238281 50.546875 234.421875 45.734375 231.914062 39.671875 L 221.804688 15.269531 C 213.371094 -5.089844 184.535156 -5.089844 176.101562 15.269531 L 165.996094 39.671875 C 163.484375 45.734375 158.667969 50.546875 152.609375 53.058594 L 128.207031 63.164062 C 107.847656 71.597656 107.847656 100.4375 128.207031 108.867188 L 152.609375 118.976562 C 158.667969 121.488281 163.484375 126.300781 165.996094 132.363281 L 176.101562 156.765625 C 184.535156 177.125 213.371094 177.125 221.804688 156.765625 L 231.914062 132.363281 C 234.421875 126.300781 239.238281 121.488281 245.296875 118.976562 Z M 245.296875 118.976562 " style=" stroke:none;fill-rule:nonzero;fill:rgb(100%,81.568627%,38.039216%);fill-opacity:1;" />
<path d="M 484.5625 152.277344 L 501.441406 145.289062 C 515.519531 139.457031 515.519531 119.511719 501.441406 113.679688 L 484.5625 106.691406 C 480.371094 104.953125 477.042969 101.625 475.304688 97.433594 L 468.316406 80.554688 C 462.484375 66.476562 442.539062 66.476562 436.710938 80.554688 L 429.71875 97.433594 C 427.984375 101.625 424.652344 104.953125 420.460938 106.691406 L 403.582031 113.679688 C 389.503906 119.511719 389.503906 139.457031 403.582031 145.289062 L 420.460938 152.277344 C 424.652344 154.011719 427.984375 157.34375 429.71875 161.535156 L 436.710938 178.414062 C 442.539062 192.492188 462.484375 192.492188 468.316406 178.414062 L 475.304688 161.535156 C 477.042969 157.34375 480.371094 154.011719 484.5625 152.277344 Z M 484.5625 152.277344 " style=" stroke:none;fill-rule:nonzero;fill:rgb(100%,81.568627%,38.039216%);fill-opacity:1;" />
<path d="M 424.117188 318.296875 L 435.789062 313.460938 C 445.527344 309.429688 445.527344 295.636719 435.789062 291.605469 L 424.117188 286.769531 C 421.21875 285.570312 418.914062 283.265625 417.714844 280.367188 L 412.878906 268.695312 C 408.847656 258.957031 395.054688 258.957031 391.023438 268.695312 L 386.1875 280.367188 C 384.988281 283.265625 382.683594 285.570312 379.785156 286.769531 L 368.113281 291.605469 C 358.375 295.636719 358.375 309.429688 368.113281 313.460938 L 379.785156 318.296875 C 382.683594 319.496094 384.988281 321.800781 386.1875 324.699219 L 391.023438 336.371094 C 395.054688 346.109375 408.847656 346.109375 412.878906 336.371094 L 417.714844 324.699219 C 418.914062 321.800781 421.21875 319.496094 424.117188 318.296875 Z M 424.117188 318.296875 " style=" stroke:none;fill-rule:nonzero;fill:rgb(100%,81.568627%,38.039216%);fill-opacity:1;" />
</g>
</svg>