<svg width="200" height="140" viewBox="0 0 200 140" xmlns="http://www.w3.org/2000/svg" xmlns:xlink="http://www.w3.org/1999/xlink"><defs><path id="path-1" d="M0 0h200v140H0z"/></defs><g id="Welcome-Illustration" stroke="none" stroke-width="1" fill="none" fill-rule="evenodd"><g id="Illustration"><mask id="mask-2" fill="#fff"><use xlink:href="#path-1"/></mask><g id="Group" mask="url(#mask-2)"><g transform="rotate(-12 251.744 -21.144)"><path d="M29.041 80.567h16.434a4.389 4.389 0 004.388-4.389V34.533a4.389 4.389 0 00-4.388-4.389H11.507c-6.172 0-10.96 11.287-10.96 25.212 0 13.924 4.788 25.211 10.96 25.211h4.383" id="Fill-1" stroke="none" fill="#C9E0FF" fill-rule="evenodd"/><path d="M49.863 33.433c31.474 0 57.298-16.953 69.36-26.514l.007 96.88c-12.06-9.56-37.886-26.52-69.367-26.52" id="Fill-3" stroke="none" fill="#C9E0FF" fill-rule="evenodd"/><path d="M119.223 6.918c-12.062 9.562-37.885 26.514-69.36 26.514v33.98c31.475 0 57.298-16.951 69.36-26.513V6.92z" id="Fill-5" stroke="none" fill="#FFF" fill-rule="evenodd"/><path d="M49.863 33.433c31.474 0 57.298-16.953 69.36-26.514l.007 96.88c-12.06-9.56-37.886-26.52-69.367-26.52" id="Stroke-7" stroke="#444752" stroke-width="2" fill="none"/><path d="M159.451 55.356c0 30.269-12.266 54.807-27.397 54.807-15.131 0-27.398-24.538-27.398-54.807 0-30.27 12.267-54.808 27.398-54.808 15.13 0 27.397 24.539 27.397 54.808" id="Fill-9" stroke="none" fill="#C9E0FF" fill-rule="evenodd"/><path d="M132.054 60.837V49.875l-27.26-2.192c-.09 1.803-.138 5.822-.138 7.673 0 1.85.048 5.87.137 7.673l27.26-2.192z" id="Fill-11" stroke="none" fill="#FFF" fill-rule="evenodd"/><path d="M40.553 80.567l-1.648 6.623c-.337 1.167-.982 2.193-2.192 2.193h-4.384l1.469-8.816h6.755z" id="Fill-13" stroke="none" fill="#444752" fill-rule="evenodd"/><path d="M40.553 80.567l-1.648 6.623c-.337 1.167-.982 2.193-2.192 2.193h-4.384l1.469-8.816h6.755z" id="Stroke-15" stroke="#444752" stroke-width="2" fill="none"/><path d="M132.054 57.003v3.833l-27.26 2.193c-.028-.546-.051-5.479-.07-6.03l27.33.004z" id="Fill-17" stroke="none" fill="#ECECEE" fill-rule="evenodd"/><path d="M134.793 55.356c0 3.026-1.226 5.48-2.74 5.48-1.513 0-2.739-2.454-2.739-5.48 0-3.027 1.226-5.481 2.74-5.481 1.513 0 2.74 2.454 2.74 5.48" id="Fill-19" stroke="none" fill="#0043FF" fill-rule="evenodd"/><path d="M134.793 55.356c0 3.026-1.226 5.48-2.74 5.48-1.513 0-2.739-2.454-2.739-5.48 0-3.027 1.226-5.481 2.74-5.481 1.513 0 2.74 2.454 2.74 5.48" id="Fill-21" stroke="none" fill="#444752" fill-rule="evenodd"/><path d="M134.793 55.356c0 3.026-1.226 5.48-2.74 5.48-1.513 0-2.739-2.454-2.739-5.48 0-3.027 1.226-5.481 2.74-5.481 1.513 0 2.74 2.454 2.74 5.48z" id="Stroke-23" stroke="#444752" stroke-width="2" fill="none"/><path d="M132.054 49.875l-27.005-2.171c-.09 1.802-.393 5.802-.393 7.652 0 1.85.336 5.847.425 7.65l26.973-2.17c1.513 0 2.74-2.454 2.74-5.48 0-3.027-1.227-5.48-2.74-5.48z" id="Stroke-25" stroke="#444752" stroke-width="2" fill="none"/><path d="M113.424 55.356c0-27.281 9.964-49.898 23.01-54.1a14.24 14.24 0 00-4.38-.708c-15.131 0-27.398 21.615-27.398 54.808 0 30.269 12.267 54.807 27.398 54.807 1.491 0 2.953-.248 4.379-.708-13.045-4.201-23.01-26.818-23.01-54.1" id="Fill-27" stroke="none" fill="#C9E0FF" fill-rule="evenodd" style="mix-blend-mode:multiply"/><path d="M46.023 30.144h-29.31c-5.401 0-9.59 11.287-9.59 25.212 0 13.924 4.189 25.211 9.59 25.211h29.31c2.12 0 3.84-1.965 3.84-4.39V34.534c0-2.424-1.72-4.39-3.84-4.39" id="Fill-29" stroke="none" fill="#FFF" fill-rule="evenodd"/><path d="M30.137 113.452h-6.575c-1.809 0-2.975-1.483-3.288-3.289L15.89 80.567h13.151l4.384 29.596c.25 1.695-1.48 3.289-3.288 3.289" id="Fill-31" stroke="none" fill="#C9E0FF" fill-rule="evenodd"/><path d="M35.616 113.452h-6.575c-1.808 0-2.974-1.483-3.288-3.289L21.37 80.567h13.15l4.384 29.596c.251 1.695-1.48 3.289-3.288 3.289" id="Fill-33" stroke="none" fill="#FFF" fill-rule="evenodd"/><path d="M35.616 113.452H23.562c-1.809 0-2.975-1.483-3.288-3.289L15.89 80.567h18.63l4.384 29.596c.251 1.695-1.48 3.289-3.288 3.289z" id="Stroke-35" stroke="#444752" stroke-width="2" fill="none"/><path d="M34.52 46.59H21.37a2.198 2.198 0 01-2.192-2.193c0-1.206.986-2.192 2.192-2.192h13.15c1.206 0 2.192.986 2.192 2.192a2.198 2.198 0 01-2.191 2.192" id="Fill-37" stroke="none" fill="#C9E0FF" fill-rule="evenodd"/><path d="M34.52 57.55H21.37a2.198 2.198 0 01-2.192-2.191c0-1.206.986-2.193 2.192-2.193h13.15c1.206 0 2.192.987 2.192 2.193a2.198 2.198 0 01-2.191 2.192" id="Fill-39" stroke="none" fill="#C9E0FF" fill-rule="evenodd"/><path d="M34.52 68.512H21.37a2.198 2.198 0 01-2.192-2.192c0-1.206.986-2.192 2.192-2.192h13.15c1.206 0 2.192.986 2.192 2.192a2.198 2.198 0 01-2.191 2.192" id="Fill-41" stroke="none" fill="#C9E0FF" fill-rule="evenodd"/><path d="M29.041 80.567h16.434a4.389 4.389 0 004.388-4.389V34.533a4.389 4.389 0 00-4.388-4.389H11.507c-6.172 0-10.96 11.287-10.96 25.212 0 13.924 4.788 25.211 10.96 25.211h4.383" id="Stroke-43" stroke="#444752" stroke-width="2" fill="none"/><path d="M159.451 55.356c0 30.269-12.266 54.807-27.397 54.807-15.131 0-27.398-24.538-27.398-54.807 0-30.27 12.267-54.808 27.398-54.808 15.13 0 27.397 24.539 27.397 54.808z" id="Stroke-45" stroke="#444752" stroke-width="2" fill="none"/></g></g></g></g></svg>