<?xml version="1.0" encoding="UTF-8" standalone="no"?><!DOCTYPE svg PUBLIC "-//W3C//DTD SVG 1.1//EN" "http://www.w3.org/Graphics/SVG/1.1/DTD/svg11.dtd"><svg width="100%" height="100%" viewBox="0 0 290 992" version="1.1" xmlns="http://www.w3.org/2000/svg" xmlns:xlink="http://www.w3.org/1999/xlink" xml:space="preserve" xmlns:serif="http://www.serif.com/" style="fill-rule:evenodd;clip-rule:evenodd;stroke-linejoin:round;stroke-miterlimit:1.41421;"><g><path d="M0.7,847.7c0,-79.641 64.659,-144.3 144.3,-144.3c79.641,0 144.3,64.659 144.3,144.3c0,79.641 -64.659,144.3 -144.3,144.3c-79.641,0 -144.3,-64.659 -144.3,-144.3Z" /><path d="M0.7,496c0,-79.641 64.659,-144.3 144.3,-144.3c79.641,0 144.3,64.659 144.3,144.3c0,79.641 -64.659,144.3 -144.3,144.3c-79.641,0 -144.3,-64.659 -144.3,-144.3Z"/><path d="M0.7,144.3c0,-79.641 64.659,-144.3 144.3,-144.3c79.641,0 144.3,64.659 144.3,144.3c0,79.641 -64.659,144.3 -144.3,144.3c-79.641,0 -144.3,-64.659 -144.3,-144.3Z"/></g></svg>
