<svg width="150" height="150" viewBox="0 0 150 150" xmlns="http://www.w3.org/2000/svg" xmlns:xlink="http://www.w3.org/1999/xlink"><defs><path id="path-1" d="M0 0h150v150H0z"/><path id="path-3" d="M0 0h48v48H0z"/></defs><g id="Zero_Events_@2x" stroke="none" stroke-width="1" fill="none" fill-rule="evenodd"><g id="Group-42"><mask id="mask-2" fill="#fff"><use xlink:href="#path-1"/></mask><g mask="url(#mask-2)"><g transform="translate(1 13)"><path d="M115.2 124H4.8a4.8 4.8 0 01-4.8-4.8V32.8A4.8 4.8 0 014.8 28h110.4a4.8 4.8 0 014.8 4.8v86.4a4.8 4.8 0 01-4.8 4.8" id="Fill-1" stroke="none" fill="#ECECEE" fill-rule="evenodd"/><path d="M122.8 116.4H12.4a4.8 4.8 0 01-4.8-4.8V25.2a4.8 4.8 0 014.8-4.8h110.4a4.8 4.8 0 014.8 4.8v86.4a4.8 4.8 0 01-4.8 4.8" id="Fill-3" stroke="none" fill="#FFF" fill-rule="evenodd"/><g id="Group-8" stroke="none" stroke-width="1" fill="none" fill-rule="evenodd" transform="translate(30.4 44.4)"><path d="M1.2 0v72" id="Fill-5" fill="#FFF"/><path d="M1.2 0v72" id="Stroke-7" stroke="#DADADA" stroke-width="2"/></g><g id="Group-12" stroke="none" stroke-width="1" fill="none" fill-rule="evenodd" transform="translate(54.4 44.4)"><path d="M1.2 0v72" id="Fill-9" fill="#FFF"/><path d="M1.2 0v72" id="Stroke-11" stroke="#DADADA" stroke-width="2"/></g><g id="Group-16" stroke="none" stroke-width="1" fill="none" fill-rule="evenodd" transform="translate(78.4 44.4)"><path d="M1.2 0v72" id="Fill-13" fill="#FFF"/><path d="M1.2 0v72" id="Stroke-15" stroke="#DADADA" stroke-width="2"/></g><g id="Group-20" stroke="none" stroke-width="1" fill="none" fill-rule="evenodd" transform="translate(102.4 44.4)"><path d="M1.2 0v72" id="Fill-17" fill="#FFF"/><path d="M1.2 0v72" id="Stroke-19" stroke="#DADADA" stroke-width="2"/></g><g id="Group-24" stroke="none" stroke-width="1" fill="none" fill-rule="evenodd" transform="translate(7.6 67.2)"><path d="M0 1.2h120" id="Fill-21" fill="#FFF"/><path d="M0 1.2h120" id="Stroke-23" stroke="#DADADA" stroke-width="2"/></g><g id="Group-28" stroke="none" stroke-width="1" fill="none" fill-rule="evenodd" transform="translate(7.6 91.2)"><path d="M0 1.2h120" id="Fill-25" fill="#FFF"/><path d="M0 1.2h120" id="Stroke-27" stroke="#DADADA" stroke-width="2"/></g><path d="M127.6 44.4H7.6V25.2a4.8 4.8 0 014.8-4.8h110.4a4.8 4.8 0 014.8 4.8v19.2z" id="Fill-29" stroke="none" fill="#DADADA" fill-rule="evenodd"/><path d="M127.6 44.4H7.6V25.2a4.8 4.8 0 014.8-4.8h110.4a4.8 4.8 0 014.8 4.8v19.2z" id="Stroke-31" stroke="#939393" stroke-width="3" fill="none"/><path d="M96.711 20.4a23.957 23.957 0 00-1.51 8.4c0 13.254 10.744 24 24 24 2.913 0 5.706-.52 8.29-1.47V20.4h-30.78z" id="Fill-33" stroke="none" fill="#ECECEE" fill-rule="evenodd" style="mix-blend-mode:multiply"/><path d="M122.8 116.4H12.4a4.8 4.8 0 01-4.8-4.8V25.2a4.8 4.8 0 014.8-4.8h110.4a4.8 4.8 0 014.8 4.8v86.4a4.8 4.8 0 01-4.8 4.8z" id="Stroke-35" stroke="#939393" stroke-width="3" fill="none"/><g id="Group-39" stroke="none" stroke-width="1" fill="none" fill-rule="evenodd" transform="translate(100)"><mask id="mask-4" fill="#fff"><use xlink:href="#path-3"/></mask><path d="M48 24c0 13.255-10.746 24-24 24C10.745 48 0 37.255 0 24 0 10.746 10.745 0 24 0c13.254 0 24 10.746 24 24" id="Fill-37" fill="#939393" mask="url(#mask-4)"/></g><path d="M124 17.911c-2.675 0-3.677 2.648-3.677 6.075s1.002 6.103 3.676 6.103c2.648 0 3.65-2.676 3.65-6.103 0-3.427-1.002-6.075-3.65-6.075m0-3.51c5.295 0 7.692 4.792 7.692 9.585 0 4.794-2.397 9.614-7.692 9.614-5.322 0-7.69-4.82-7.69-9.614 0-4.793 2.368-9.586 7.69-9.586" id="Fill-40" stroke="none" fill="#FFF" fill-rule="evenodd"/></g></g></g></g></svg>