<svg version="1.1" id="Capa_1" xmlns="http://www.w3.org/2000/svg" xmlns:xlink="http://www.w3.org/1999/xlink" x="0" y="0" viewBox="0 0 512 512" xml:space="preserve"><path d="M496 112.011H272c-8.832 0-16 7.168-16 16s7.168 16 16 16h177.376l-98.304 76.448-70.496-44.832-17.152 27.008 80 50.88a15.915 15.915 0 008.576 2.496c3.456 0 6.944-1.12 9.824-3.36L480 160.715v207.296H272c-8.832 0-16 7.168-16 16s7.168 16 16 16h224c8.832 0 16-7.168 16-16v-256c0-8.832-7.168-16-16-16z" fill="#1976d2"/><path d="M282.208 19.691c-3.648-3.04-8.544-4.352-13.152-3.392l-256 48A15.955 15.955 0 000 80.011v352c0 7.68 5.472 14.304 13.056 15.712l256 48c.96.192 1.952.288 2.944.288 3.712 0 7.328-1.28 10.208-3.68a16.006 16.006 0 005.792-12.32v-448c0-4.768-2.112-9.28-5.792-12.32z" fill="#2196f3"/><path d="M144 368.011c-44.096 0-80-43.072-80-96s35.904-96 80-96 80 43.072 80 96-35.904 96-80 96zm0-160c-26.464 0-48 28.704-48 64s21.536 64 48 64 48-28.704 48-64-21.536-64-48-64z" fill="#fafafa"/></svg>