<?xml version="1.0" ?><svg viewBox="0 0 64 64" xmlns="http://www.w3.org/2000/svg"><title/><g data-name="Outline duo color" id="Outline_duo_color"><path d="M18.2363,46.877a1.219,1.219,0,0,1-.5049-.1065,1.3565,1.3565,0,0,1-.7026-1.5889c.002-.0146.0049-.03.0078-.0449.0635-.3135,1.6436-7.7656,9.02-15.6679C32.4082,22.668,39.6733,19.2549,45.02,20.5752a2.5858,2.5858,0,0,1,1.8355,1.51,2.13,2.13,0,0,1-.251,1.998c-.3564.5342-.9644.667-1.9722.8867a23.9349,23.9349,0,0,0-8.2407,3.37c-2.7051,1.6983-7.7056,6.0362-16.1684,17.0616-.2339.3047-.3868.5029-.4454.5742A2.0483,2.0483,0,0,1,18.2363,46.877ZM42.6431,22.2979c-4.4092,0-10.1114,3.1679-15.1241,8.5361a37.7962,37.7962,0,0,0-7.4936,11.5605c7.8174-9.956,12.6142-14.0615,15.3022-15.748a25.7692,25.7692,0,0,1,8.8775-3.63c.2861-.0625.6015-.1318.791-.1865a.0889.0889,0,0,0-.0049-.0205.653.653,0,0,0-.4487-.293A7.989,7.989,0,0,0,42.6431,22.2979Z" style="fill:#fea331"/><path d="M21.8413,31.2715a1.5583,1.5583,0,0,1-1.2559-.7207c-1.3408-1.7744-2.9907-8.9561-2.4184-10.5274L18.1758,20a1.6256,1.6256,0,0,1,1.6733-1.18c1.7905.1485,3.4981,3.6641,3.8736,5.4287.2417,1.1358.4018,6.1143-1.3267,6.9033A1.3618,1.3618,0,0,1,21.8413,31.2715ZM20.0254,21.15a28.7569,28.7569,0,0,0,1.6733,7.28,12.0628,12.0628,0,0,0,.0679-3.7657A9.1974,9.1974,0,0,0,20.0254,21.15Zm-.919-.7842.9258.3369Zm0,0,.9454.3184a.2974.2974,0,0,0,.02-.0244Z" style="fill:#fea331"/><path d="M18.2363,46.877a1.219,1.219,0,0,1-.5049-.1065,1.3565,1.3565,0,0,1-.7026-1.5889c.002-.0146.0049-.03.0078-.0449.0635-.3135,1.6436-7.7656,9.02-15.6679C32.4082,22.668,39.6733,19.2549,45.02,20.5752a2.5858,2.5858,0,0,1,1.8355,1.51,2.13,2.13,0,0,1-.251,1.998c-.3564.5342-.9644.667-1.9722.8867a23.9349,23.9349,0,0,0-8.2407,3.37c-2.7051,1.6983-7.7056,6.0362-16.1684,17.0616-.2339.3047-.3868.5029-.4454.5742A2.0483,2.0483,0,0,1,18.2363,46.877ZM42.6431,22.2979c-4.4092,0-10.1114,3.1679-15.1241,8.5361a37.7962,37.7962,0,0,0-7.4936,11.5605c7.8174-9.956,12.6142-14.0615,15.3022-15.748a25.7692,25.7692,0,0,1,8.8775-3.63c.2861-.0625.6015-.1318.791-.1865a.0889.0889,0,0,0-.0049-.0205.653.653,0,0,0-.4487-.293A7.989,7.989,0,0,0,42.6431,22.2979Z" style="fill:#fea331"/><path d="M21.8413,31.2715a1.5583,1.5583,0,0,1-1.2559-.7207c-1.3408-1.7744-2.9907-8.9561-2.4184-10.5274L18.1758,20a1.6256,1.6256,0,0,1,1.6733-1.18c1.7905.1485,3.4981,3.6641,3.8736,5.4287.2417,1.1358.4018,6.1143-1.3267,6.9033A1.3618,1.3618,0,0,1,21.8413,31.2715ZM20.0254,21.15a28.7569,28.7569,0,0,0,1.6733,7.28,12.0628,12.0628,0,0,0,.0679-3.7657A9.1974,9.1974,0,0,0,20.0254,21.15Zm-.919-.7842.9258.3369Zm0,0,.9454.3184a.2974.2974,0,0,0,.02-.0244Z" style="fill:#fea331"/><path d="M49,54H15a5.0059,5.0059,0,0,1-5-5V15a5.0059,5.0059,0,0,1,5-5H49a5.0059,5.0059,0,0,1,5,5V49A5.0059,5.0059,0,0,1,49,54ZM15,12a3.0033,3.0033,0,0,0-3,3V49a3.0033,3.0033,0,0,0,3,3H49a3.0033,3.0033,0,0,0,3-3V15a3.0033,3.0033,0,0,0-3-3Z" style="fill:#fb325d"/><path d="M49,54H15a5.0059,5.0059,0,0,1-5-5V15a5.0059,5.0059,0,0,1,5-5H49a5.0059,5.0059,0,0,1,5,5V49A5.0059,5.0059,0,0,1,49,54ZM15,12a3.0033,3.0033,0,0,0-3,3V49a3.0033,3.0033,0,0,0,3,3H49a3.0033,3.0033,0,0,0,3-3V15a3.0033,3.0033,0,0,0-3-3Z" style="fill:#fb325d"/></g></svg>