<?xml version="1.0" encoding="UTF-8" standalone="no"?><!DOCTYPE svg PUBLIC "-//W3C//DTD SVG 1.1//EN" "http://www.w3.org/Graphics/SVG/1.1/DTD/svg11.dtd"><svg width="100%" height="100%" viewBox="0 0 49 18" version="1.1" xmlns="http://www.w3.org/2000/svg" xmlns:xlink="http://www.w3.org/1999/xlink" xml:space="preserve" xmlns:serif="http://www.serif.com/" style="fill-rule:evenodd;clip-rule:evenodd;stroke-linejoin:round;stroke-miterlimit:1.41421;"><g><path d="M12.543,7.913c-0.498,-0.068 -0.993,-0.187 -1.492,-0.215c-0.977,-0.055 -1.919,0.117 -2.741,0.678c-1.31,0.894 -1.85,2.179 -1.787,3.73c0.029,0.738 0.318,1.365 1.022,1.689c0.712,0.326 1.415,0.219 2.029,-0.257c0.296,-0.229 0.529,-0.536 0.824,-0.844c-0.02,0.308 -0.031,0.601 -0.058,0.892c-0.018,0.182 0.044,0.252 0.231,0.245c0.363,-0.012 0.729,-0.012 1.092,0c0.197,0.007 0.242,-0.065 0.255,-0.257c0.04,-0.626 0.07,-1.256 0.172,-1.874c0.191,-1.16 0.427,-2.315 0.648,-3.473c0.033,-0.174 0.006,-0.285 -0.195,-0.314Zm-2.509,3.985c-0.105,0.163 -0.244,0.313 -0.393,0.438c-0.245,0.211 -0.534,0.301 -0.852,0.174c-0.316,-0.127 -0.43,-0.414 -0.449,-0.717c-0.065,-0.978 0.274,-1.803 1.025,-2.435c0.399,-0.336 0.874,-0.445 1.442,-0.287c-0.202,0.973 -0.216,1.973 -0.773,2.827Z" style="fill:#0452ff;fill-rule:nonzero;"/><path d="M30.404,1.752c-0.807,-1.386 -2.658,-1.031 -2.658,-1.031c-0.147,0.033 -0.297,0.069 -0.446,0.097c-0.9,0.168 -1.748,0.477 -2.56,0.889c-1.765,0.894 -3.345,2.049 -4.765,3.415c-0.944,0.908 -1.861,1.848 -2.745,2.817c-1.552,1.703 -2.881,3.573 -3.943,5.624c-0.547,1.055 -1.035,2.141 -1.26,3.322c-0.042,0.217 0.028,0.467 0.098,0.687c0.03,0.086 0.19,0.153 0.302,0.188c0.03,0.008 0.121,-0.136 0.161,-0.221c0.259,-0.562 0.463,-1.156 0.78,-1.681c0.633,-1.053 1.295,-2.092 2.004,-3.094c1.137,-1.611 2.44,-3.087 3.834,-4.483c1.317,-1.32 2.665,-2.606 4.327,-3.496c0.763,-0.409 1.537,-0.806 2.338,-1.134c1.377,-0.568 2.812,-0.953 4.291,-1.173c0.156,-0.022 0.369,-0.147 0.42,-0.277c0.043,-0.112 -0.178,-0.449 -0.178,-0.449Z" style="fill:#0452ff;fill-rule:nonzero;"/><path d="M6.741,7.346c-0.113,-0.791 -0.778,-1.462 -1.736,-1.698c-1.097,-0.271 -2.197,-0.159 -3.296,0.007c-0.145,0.022 -0.186,0.119 -0.212,0.259c-0.42,2.221 -0.848,4.44 -1.271,6.66c-0.077,0.401 -0.146,0.806 -0.226,1.248c0.562,0 1.088,0.004 1.613,-0.009c0.042,-0.002 0.104,-0.113 0.116,-0.182c0.17,-0.856 0.338,-1.716 0.494,-2.574c0.03,-0.166 0.083,-0.213 0.259,-0.196c0.746,0.067 1.48,0.016 2.2,-0.224c1.37,-0.451 2.288,-1.713 2.059,-3.291Zm-1.852,1.194c-0.271,0.579 -0.764,0.854 -1.371,0.919c-0.313,0.034 -0.633,0.007 -0.992,0.007c0.163,-0.866 0.306,-1.634 0.457,-2.4c0.012,-0.057 0.083,-0.136 0.135,-0.144c0.427,-0.057 0.856,-0.089 1.272,0.06c0.586,0.206 0.808,0.902 0.499,1.558Z" style="fill:#0452ff;fill-rule:nonzero;"/><path d="M15.419,5.601c-0.16,-1.36 -0.746,-2.519 -1.678,-3.507c-0.108,-0.116 -0.265,-0.201 -0.415,-0.256c-0.155,-0.056 -0.257,0.032 -0.242,0.209c0.013,0.155 0.027,0.312 0.054,0.466c0.189,1.069 0.372,2.14 0.575,3.208c0.159,0.834 0.333,1.666 0.522,2.494c0.062,0.268 0.17,0.532 0.298,0.777c0.097,0.187 0.237,0.172 0.367,0.001c0.055,-0.071 0.115,-0.144 0.144,-0.226c0.28,-0.767 0.425,-1.559 0.442,-2.377c-0.022,-0.263 -0.036,-0.527 -0.067,-0.789Z" style="fill:#0452ff;fill-rule:nonzero;"/><path d="M46.163,9.029c0.035,-0.39 0.064,-0.781 0.097,-1.198c-0.482,0 -0.931,-0.006 -1.373,0.008c-0.052,0.002 -0.14,0.111 -0.144,0.174c-0.125,1.549 -0.44,3.068 -0.744,4.589c-0.077,0.394 -0.146,0.789 -0.223,1.223c0.577,0 1.118,0.004 1.661,-0.008c0.041,-0.001 0.101,-0.115 0.115,-0.182c0.17,-0.83 0.301,-1.672 0.502,-2.496c0.289,-1.184 0.777,-1.594 1.933,-1.746c0.051,-0.007 0.127,-0.061 0.137,-0.103c0.109,-0.514 0.207,-1.028 0.316,-1.584c-1.115,-0.116 -1.737,0.526 -2.277,1.323Z" style="fill:#0452ff;fill-rule:nonzero;"/><path d="M42.643,11.088c0.732,-0.342 1.086,-0.925 1.039,-1.697c-0.049,-0.791 -0.465,-1.353 -1.246,-1.569c-1.276,-0.352 -2.393,-0.011 -3.291,0.944c-0.838,0.889 -1.146,1.977 -1,3.178c0.113,0.941 0.609,1.626 1.552,1.884c1.049,0.286 2.078,0.146 3.073,-0.263c0.068,-0.027 0.146,-0.143 0.144,-0.213c-0.019,-0.356 -0.062,-0.715 -0.101,-1.094c-0.122,0.047 -0.215,0.082 -0.307,0.113c-0.551,0.202 -1.117,0.289 -1.703,0.219c-0.627,-0.076 -1.041,-0.518 -0.983,-1.095c0.174,0 0.338,0.004 0.502,0c0.795,-0.018 1.586,-0.065 2.321,-0.407Zm-1.022,-2.104c0.225,0.062 0.393,0.18 0.426,0.424c0.035,0.262 -0.072,0.47 -0.305,0.569c-0.215,0.096 -0.449,0.166 -0.684,0.197c-0.348,0.047 -0.701,0.051 -1.074,0.075c0.078,-0.821 0.939,-1.456 1.637,-1.265Z" style="fill:#0452ff;fill-rule:nonzero;"/><path d="M31.558,8.946c-0.072,-0.65 -0.51,-1.117 -1.145,-1.225c-0.769,-0.126 -1.435,0.098 -2.014,0.603c-0.158,0.137 -0.307,0.285 -0.479,0.446c0.024,-0.315 0.049,-0.619 0.073,-0.935c-0.514,0 -0.992,0 -1.489,0c-0.368,1.993 -0.73,3.969 -1.101,5.986c0.573,0 1.09,0.007 1.61,-0.009c0.058,-0.002 0.148,-0.121 0.162,-0.197c0.129,-0.645 0.246,-1.296 0.359,-1.942c0.106,-0.597 0.211,-1.19 0.518,-1.723c0.207,-0.364 0.459,-0.69 0.883,-0.825c0.435,-0.139 0.763,0.071 0.814,0.52c0.016,0.13 0.025,0.266 0.004,0.395c-0.121,0.757 -0.252,1.513 -0.385,2.267c-0.087,0.493 -0.183,0.985 -0.275,1.472c0.047,0.022 0.07,0.04 0.092,0.04c0.504,0.004 1.009,0.014 1.513,0c0.058,-0.002 0.145,-0.117 0.162,-0.19c0.172,-0.849 0.332,-1.697 0.493,-2.549c0.136,-0.703 0.285,-1.407 0.205,-2.134Z" style="fill:#0452ff;fill-rule:nonzero;"/><path d="M35.103,11.471c0.604,-0.035 1.197,-0.138 1.746,-0.41c0.701,-0.353 1.031,-0.93 0.979,-1.688c-0.056,-0.769 -0.472,-1.324 -1.216,-1.545c-1.113,-0.332 -2.14,-0.099 -3.015,0.646c-1.062,0.904 -1.461,2.101 -1.311,3.465c0.107,0.964 0.635,1.655 1.598,1.903c1.033,0.267 2.049,0.127 3.029,-0.274c0.066,-0.026 0.146,-0.142 0.145,-0.211c-0.02,-0.358 -0.062,-0.716 -0.096,-1.071c-0.043,0 -0.061,-0.004 -0.074,0.001c-0.063,0.021 -0.125,0.046 -0.188,0.068c-0.562,0.216 -1.146,0.312 -1.748,0.237c-0.623,-0.076 -1.035,-0.508 -0.994,-1.117c0.387,0 0.768,0.019 1.145,-0.004Zm0.645,-2.49c0.238,0.058 0.406,0.185 0.445,0.436c0.039,0.245 -0.084,0.455 -0.328,0.582c-0.354,0.187 -1.278,0.298 -1.733,0.203c0.094,-0.777 0.916,-1.391 1.616,-1.221Z" style="fill:#0452ff;fill-rule:nonzero;"/><path d="M25.107,9.95c-0.047,-0.719 -0.332,-1.326 -0.919,-1.762c-0.617,-0.458 -1.319,-0.552 -2.071,-0.469c-2.512,0.279 -3.538,2.935 -3.004,4.636c0.326,1.036 1.211,1.61 2.765,1.608c1.07,-0.031 2.128,-0.637 2.792,-1.88c0.354,-0.663 0.481,-1.384 0.437,-2.133Zm-2.482,2.242c-0.194,0.247 -0.449,0.416 -0.771,0.445c-0.577,0.054 -1.017,-0.347 -1.064,-0.959c-0.007,-0.09 -0.001,-0.183 -0.001,-0.271c0.019,-0.674 0.183,-1.305 0.59,-1.854c0.182,-0.245 0.409,-0.436 0.712,-0.504c0.623,-0.144 1.133,0.219 1.189,0.893c0.07,0.822 -0.133,1.589 -0.655,2.25Z" style="fill:#0452ff;fill-rule:nonzero;"/></g></svg>