<?xml version="1.0" encoding="UTF-8" standalone="no"?><!DOCTYPE svg PUBLIC "-//W3C//DTD SVG 1.1//EN" "http://www.w3.org/Graphics/SVG/1.1/DTD/svg11.dtd"><svg width="100%" height="100%" viewBox="0 0 46 14" version="1.1" xmlns="http://www.w3.org/2000/svg" xmlns:xlink="http://www.w3.org/1999/xlink" xml:space="preserve" xmlns:serif="http://www.serif.com/" style="fill-rule:evenodd;clip-rule:evenodd;stroke-linejoin:round;stroke-miterlimit:1.41421;"><g><path d="M9.035,1.604c-0.165,-0.331 -0.426,-0.604 -0.75,-0.809c-0.338,-0.207 -0.737,-0.352 -1.193,-0.438c-0.464,-0.084 -1,-0.122 -1.621,-0.128l-2.867,0.002c-0.298,0.004 -0.59,0.236 -0.66,0.524l-1.929,8.402c-0.07,0.284 0.117,0.522 0.415,0.522l1.373,0c0.298,0 0.593,-0.231 0.659,-0.522l0.471,-2.04c0.063,-0.284 0.357,-0.521 0.658,-0.521l0.393,0c1.679,-0.002 2.979,-0.345 3.913,-1.032c0.939,-0.688 1.402,-1.597 1.402,-2.723c-0.001,-0.493 -0.082,-0.907 -0.264,-1.237Zm-2.961,2.745c-0.415,0.304 -0.992,0.456 -1.736,0.456l-0.336,0c-0.299,0 -0.482,-0.236 -0.417,-0.524l0.413,-1.784c0.058,-0.286 0.359,-0.523 0.654,-0.521l0.45,-0.003c0.525,0 0.926,0.091 1.194,0.267c0.265,0.174 0.398,0.451 0.396,0.818c0.008,0.558 -0.205,0.987 -0.618,1.291Z" style="fill-rule:nonzero;"/><path d="M15.656,2.805c-0.518,-0.292 -1.336,-0.438 -2.454,-0.438c-0.553,0 -1.104,0.043 -1.661,0.129c-0.411,0.063 -0.451,0.075 -0.704,0.13c-0.522,0.114 -0.604,0.635 -0.604,0.635l-0.168,0.691c-0.095,0.441 0.159,0.424 0.265,0.387c0.228,-0.068 0.355,-0.138 0.821,-0.242c0.445,-0.101 0.914,-0.177 1.286,-0.172c0.549,0 0.969,0.058 1.249,0.176c0.276,0.12 0.414,0.326 0.414,0.624l-0.024,0.194l-0.198,0.122c-0.779,0.049 -1.342,0.121 -2.025,0.22c-0.668,0.093 -1.254,0.256 -1.741,0.479c-0.523,0.23 -0.911,0.539 -1.182,0.932c-0.262,0.395 -0.393,0.874 -0.393,1.436c0,0.529 0.19,0.966 0.559,1.304c0.371,0.332 0.861,0.494 1.447,0.494c0.371,-0.002 0.658,-0.031 0.862,-0.08l0.665,-0.229l0.563,-0.312l0.518,-0.342l0.007,0.01l-0.052,0.22l-0.003,0.009l0,0.002c-0.056,0.268 0.106,0.488 0.367,0.514l0.005,0.006l1.275,0l0.018,-0.008c0.274,-0.032 0.531,-0.252 0.591,-0.514l1.001,-4.333l0.052,-0.353l0.024,-0.331c0.004,-0.614 -0.261,-1.069 -0.78,-1.36Zm-2.214,4.872l-0.214,0.282l-0.54,0.279c-0.254,0.103 -0.495,0.155 -0.718,0.155c-0.338,0 -0.603,-0.049 -0.782,-0.149l-0.265,-0.515c0,-0.279 0.064,-0.5 0.201,-0.67l0.582,-0.396c0.249,-0.084 0.553,-0.155 0.905,-0.204c0.314,-0.039 0.934,-0.11 1.015,-0.112l0.095,0.167c-0.019,0.095 -0.195,0.831 -0.279,1.163Z" style="fill-rule:nonzero;"/><path d="M40.594,2.811c-0.521,-0.292 -1.338,-0.439 -2.453,-0.439c-0.553,0 -1.105,0.043 -1.66,0.132c-0.412,0.06 -0.453,0.073 -0.707,0.127c-0.521,0.113 -0.602,0.636 -0.602,0.636l-0.168,0.69c-0.094,0.441 0.154,0.421 0.27,0.387c0.229,-0.068 0.352,-0.135 0.814,-0.243c0.443,-0.1 0.916,-0.174 1.289,-0.172c0.547,0 0.967,0.059 1.246,0.177c0.278,0.12 0.414,0.328 0.414,0.623l-0.021,0.193l-0.196,0.125c-0.787,0.047 -1.351,0.119 -2.027,0.218c-0.666,0.093 -1.254,0.255 -1.742,0.479c-0.521,0.231 -0.914,0.54 -1.182,0.934c-0.265,0.395 -0.394,0.873 -0.394,1.43c0,0.533 0.188,0.97 0.562,1.306c0.373,0.331 0.858,0.497 1.444,0.497c0.369,-0.004 0.656,-0.028 0.861,-0.081l0.663,-0.226l0.568,-0.312l0.514,-0.346l0.009,0.011l-0.047,0.222l-0.005,0.004l0.002,0.004c-0.062,0.268 0.101,0.49 0.365,0.514l0.002,0.005l1.274,0l0.021,-0.007c0.271,-0.033 0.527,-0.253 0.584,-0.518l1.004,-4.327l0.053,-0.355l0.029,-0.332c0.001,-0.612 -0.261,-1.065 -0.784,-1.356Zm-2.209,4.872l-0.223,0.285l-0.535,0.277c-0.254,0.102 -0.496,0.155 -0.715,0.155c-0.349,0 -0.607,-0.05 -0.781,-0.15l-0.268,-0.513c0,-0.28 0.065,-0.499 0.196,-0.672c0.133,-0.163 0.336,-0.297 0.588,-0.395c0.246,-0.084 0.55,-0.152 0.904,-0.203c0.312,-0.039 0.93,-0.112 1.01,-0.113l0.097,0.167c-0.014,0.095 -0.191,0.828 -0.273,1.162Z" style="fill-rule:nonzero;"/><path d="M33.969,1.635c-0.172,-0.333 -0.43,-0.602 -0.756,-0.812c-0.334,-0.208 -0.73,-0.354 -1.193,-0.438c-0.455,-0.081 -0.998,-0.125 -1.615,-0.126l-2.871,0.002c-0.299,0.005 -0.586,0.237 -0.655,0.522l-1.931,8.406c-0.07,0.285 0.122,0.521 0.414,0.521l1.375,-0.002c0.292,0.002 0.591,-0.232 0.66,-0.52l0.465,-2.041c0.068,-0.284 0.363,-0.523 0.66,-0.521l0.393,0c1.681,0 2.984,-0.346 3.922,-1.031c0.927,-0.693 1.396,-1.6 1.396,-2.727c-0.005,-0.491 -0.09,-0.906 -0.264,-1.233Zm-2.961,2.749c-0.414,0.298 -0.992,0.45 -1.732,0.45l-0.342,0c-0.295,0.003 -0.486,-0.237 -0.42,-0.523l0.416,-1.781c0.061,-0.285 0.359,-0.524 0.656,-0.521l0.445,-0.003c0.528,0.003 0.924,0.09 1.194,0.266c0.269,0.176 0.396,0.452 0.399,0.818c0.003,0.558 -0.204,0.988 -0.616,1.294Z" style="fill-rule:nonzero;"/><path d="M45.742,0.85c0.063,-0.287 -0.117,-0.52 -0.412,-0.516l-1.23,0c-0.252,0 -0.479,0.187 -0.59,0.417l-0.068,0.106l-0.062,0.272l-1.719,7.814l-0.056,0.24l0.002,0.006c-0.057,0.257 0.101,0.451 0.345,0.488l0.021,0.029l1.277,0c0.25,0 0.485,-0.19 0.592,-0.424l0.066,-0.1l1.838,-8.331l-0.004,-0.001Z" style="fill-rule:nonzero;"/><path d="M24.986,2.472c-0.325,0.004 -1.646,0 -1.646,0c-0.296,0 -0.676,0.239 -0.864,0.524c0,0 -1.966,3.374 -2.157,3.713l-0.228,-0.003l-0.612,-3.687c-0.068,-0.29 -0.371,-0.538 -0.748,-0.538l-1.23,0.002c-0.296,0 -0.478,0.236 -0.411,0.524c0,0 0.934,5.315 1.121,6.566c0.087,0.69 -0.011,0.813 -0.011,0.813l-1.216,2.118c-0.18,0.288 -0.083,0.523 0.212,0.523l1.422,-0.002c0.296,0 0.685,-0.233 0.861,-0.522l5.47,-9.252c0,0.001 0.526,-0.79 0.037,-0.779Z" style="fill-rule:nonzero;"/></g></svg>