<svg width="220" height="180" viewBox="0 0 220 180" xmlns="http://www.w3.org/2000/svg"><g fill="none" fill-rule="evenodd"><path d="M6 0h208a6 6 0 016 6v8H0V6a6 6 0 016-6z" fill="#D8D8D8"/><circle stroke="#979797" fill="#FFF" cx="10.5" cy="7.5" r="2.5"/><circle stroke="#979797" fill="#FFF" cx="18.5" cy="7.5" r="2.5"/><circle stroke="#979797" fill="#FFF" cx="26.5" cy="7.5" r="2.5"/><rect stroke="#979797" stroke-width="2" x="1" y="1" width="218" height="178" rx="5"/><path d="M2.5 14h216.535" stroke="#979797" stroke-linecap="square"/><path d="M14 14.5h192v18H14zM14 40h89v52H14zm0 59h89v52H14zm97-59h95v111h-95zM14 158h192v20H14z" fill="#F3F3F3"/><rect fill="#00A2FF" x="150" y="148" width="57" height="19" rx="9.5"/></g></svg>