<svg width="200" height="140" viewBox="0 0 200 140" xmlns="http://www.w3.org/2000/svg" xmlns:xlink="http://www.w3.org/1999/xlink"><defs><path id="path-1" d="M0 0h200v140H0z"/></defs><g id="Role-Customization-Illustration" stroke="none" stroke-width="1" fill="none" fill-rule="evenodd"><g id="Illustration"><mask id="mask-2" fill="#fff"><use xlink:href="#path-1"/></mask><g id="Group" mask="url(#mask-2)"><g transform="translate(15 24)"><path d="M137.425 58.72L15.379 91.433.514 35.938a3.83 3.83 0 012.707-4.692L117.871.514a3.829 3.829 0 014.69 2.71l14.864 55.495z" id="Fill-1" stroke="none" fill="#FFF" fill-rule="evenodd"/><path d="M3.222 31.246a3.832 3.832 0 00-2.708 4.692L13.399 84.04l7.396-1.982L7.911 33.955a3.83 3.83 0 012.707-4.691" id="Fill-3" stroke="none" fill="#C9E0FF" fill-rule="evenodd"/><path d="M11.927 47.637s-3.397-1.293-5.102-4.514C5.121 39.903 1.7 38.516 1.7 38.516l-.671-2.506s-.897-2.934 2.125-4.484L7.3 30.363" id="Fill-5" stroke="none" fill="#C9E0FF" fill-rule="evenodd" style="mix-blend-mode:multiply"/><path d="M11.493 47.327c.32.816 3.893.254 3.893.254 3.595-.468 6.848-3.217 9.482-5.876 4.286-4.329 9.876-6.729 15.991-5.178 5.377 1.362 9.637 5.632 15.14 6.679 5.914 1.125 11.268-1.922 15.334-6.037 4.323-4.375 7.741-10.967 13.964-12.74 0 0 8.37-3.577 16.705 2.11 0 0 15.953 10.32 23.223-2.398 0 0 1.697-3.518 1-6.122l-1.1-4.107L122.3 3.366c-.528-1.973-2.498-3.16-4.399-2.65L10.51 29.503l-3.443.922.958 3.573 2.818 10.906" id="Fill-7" stroke="none" fill="#C9E0FF" fill-rule="evenodd"/><path d="M137.425 58.72L15.379 91.433.514 35.938a3.83 3.83 0 012.707-4.692L117.871.514a3.829 3.829 0 014.69 2.71l14.864 55.495z" id="Stroke-9" stroke="#444752" stroke-width="2" fill="none"/><path id="Fill-15" stroke="none" fill="#C9E0FF" fill-rule="evenodd" d="M21.061 97.85l-3.698.99-3.964-14.798 3.699-.992z"/><path id="Fill-17" stroke="none" fill="#ECF4FF" fill-rule="evenodd" d="M139.409 66.126L17.363 98.84l-3.964-14.798 122.046-32.716z"/><path id="Fill-19" stroke="none" fill="#C9E0FF" fill-rule="evenodd" style="mix-blend-mode:multiply" d="M20.796 82.059l3.963 14.8-7.396 1.982-3.964-14.8z"/><path id="Stroke-21" stroke="#444752" stroke-width="2" fill="none" d="M139.409 66.126L17.363 98.84l-3.964-14.798 122.046-32.716z"/><path d="M17.363 98.84l1.982 7.4a7.657 7.657 0 009.379 5.417l40.678-10.905 10.9 40.698c1.635 6.105 7.966 9.76 14.068 8.125l3.691-.99c.004 0 .008 0 .011-.002 6.103-1.636 9.758-7.969 8.123-14.073L95.294 93.812l40.682-10.905a7.66 7.66 0 005.415-9.382l-1.982-7.399L17.363 98.84z" id="Fill-23" stroke="none" fill="#C9E0FF" fill-rule="evenodd"/><path d="M17.363 98.84l1.982 7.4a7.657 7.657 0 009.379 5.417l7.396-1.983a7.657 7.657 0 01-9.379-5.417l-1.982-7.4-7.396 1.983z" id="Fill-25" stroke="none" fill="#79B2FC" fill-rule="evenodd"/><path d="M84.74 140.26L73.797 99.575l-4.439 1.19 10.945 40.685c1.636 6.104 7.967 9.76 14.069 8.125l3.691-.99.01-.002c.13-.034.251-.081.377-.12-5.99 1.4-12.106-2.218-13.708-8.203" id="Fill-27" stroke="none" fill="#79B2FC" fill-rule="evenodd"/><path d="M121.55 86.642l13.699-37.651L132 36.869l-18.936 52.047 8.485-2.274zm-14.988 47.636l-4.24-15.833-7.039 19.342v.001l1.28 11.131c14.32-3.672 10-14.64 10-14.64z" id="Fill-33" stroke="none" fill="#C9E0FF" fill-rule="evenodd" style="mix-blend-mode:multiply"/><path d="M14.953 60.247l1.982 7.4" id="Stroke-35" stroke="#444752" stroke-width="2" fill="none" stroke-linecap="round"/><path d="M17.363 98.84l1.982 7.4a7.657 7.657 0 009.379 5.417l40.678-10.905 10.9 40.698c1.635 6.105 7.966 9.76 14.068 8.125l3.691-.99c.004 0 .008 0 .011-.002h0c6.103-1.636 9.758-7.969 8.123-14.073L95.294 93.812l40.682-10.905a7.66 7.66 0 005.415-9.382l-1.982-7.399L17.363 98.84z" id="Stroke-37" stroke="#444752" stroke-width="2" fill="none"/><path d="M69.402 100.753l4.393-1.178" id="Stroke-39" stroke="#444752" stroke-width="2" fill="none"/><path d="M166.22 33.651l-21.587-7.86 3.143-8.638a6.126 6.126 0 017.852-3.663l10.074 3.668a6.13 6.13 0 013.661 7.855l-3.142 8.638z" id="Fill-41" stroke="none" fill="#C9E0FF" fill-rule="evenodd"/><path d="M162.824 16.11l-7.196-2.62a6.125 6.125 0 00-7.852 3.662l-3.143 8.638 7.196 2.621 3.143-8.639a6.126 6.126 0 017.852-3.662" id="Fill-43" stroke="none" fill="#C9E0FF" fill-rule="evenodd" style="mix-blend-mode:multiply"/><path id="Fill-47" stroke="none" fill="#ECF4FF" fill-rule="evenodd" d="M149.21 35.61l-39.286 107.978.978 8.509 6.218-5.889 39.286-107.979z"/><path id="Fill-49" stroke="none" fill="#ECF4FF" fill-rule="evenodd" d="M142.014 32.99l-39.286 107.978.979 8.509 6.217-5.89L149.21 35.61z"/><path id="Fill-51" stroke="none" fill="#ECF4FF" fill-rule="evenodd" d="M156.406 38.23L117.12 146.208l.978 8.509 6.218-5.889L163.602 40.85z"/><path id="Fill-53" stroke="none" fill="#C9E0FF" fill-rule="evenodd" d="M142.014 32.99l-39.286 107.978.979 8.509 6.217-5.89L149.21 35.61z"/><path id="Fill-55" stroke="none" fill="#FFF" fill-rule="evenodd" d="M163.602 40.85l-21.588-7.86 2.619-7.2 21.587 7.861z"/><path id="Fill-57" stroke="none" fill="#C9E0FF" fill-rule="evenodd" style="mix-blend-mode:multiply" d="M149.207 35.608l2.62-7.198-7.197-2.62-2.619 7.199"/><path id="Stroke-59" stroke="#444752" stroke-width="2" fill="none" d="M163.602 40.85l-21.588-7.86 2.619-7.2 21.587 7.861z"/><path d="M165.702 17.158l-10.074-3.668a6.125 6.125 0 00-7.852 3.662l-3.143 8.64-2.62 7.198-39.285 107.978 2.237 19.443.7 6.083 4.444-4.21 14.206-13.456L163.602 40.85l2.618-7.2 3.143-8.637a6.129 6.129 0 00-3.66-7.855z" id="Stroke-65" stroke="#444752" stroke-width="2" fill="none"/></g></g></g></g></svg>