<svg width="41" height="69" viewBox="0 0 41 69" xmlns="http://www.w3.org/2000/svg" xmlns:xlink="http://www.w3.org/1999/xlink"><g id="SMS-notifications" stroke="none" stroke-width="1" fill="none" fill-rule="evenodd"><g id="publisher-text-on/off---1" transform="translate(-299 -528)"><g id="text_reminder" transform="translate(300 529)"><rect id="Rectangle-7-Copy" stroke="#666A73" stroke-width="1.5" fill="#FFF" x="0" y="0" width="39" height="67" rx="3"/><path d="M.5 5h38.003" id="Line-2-Copy" stroke="#666A73" stroke-linecap="square"/><g id="Group-5" transform="translate(10 22)"><circle id="Oval-117" fill-opacity=".5" fill="#00A2FF" cx="10.138" cy="10.452" r="10.043"/><path d="M11.693 6.39a3.71 3.71 0 012.356 3.454v2.465a3.79 3.79 0 01.834 2.357h-3.43a1.113 1.113 0 11-2.226 0H5.796c0-.878.309-1.691.834-2.357V9.844A3.71 3.71 0 018.986 6.39a1.484 1.484 0 012.707 0z" id="Combined-Shape" fill="#FFF"/></g><path d="M.5 62h39" id="Line-2-Copy-2" stroke="#666A73" stroke-linecap="square"/><g id="Group-6" transform="translate(14 2)" fill="#666A73"><rect id="Rectangle-2" x="2" y="0" width="8" height="1" rx=".5"/><circle id="Oval" cx=".5" cy=".5" r="1"/></g></g></g></g></svg>