<svg version="1.1" id="Capa_1" xmlns="http://www.w3.org/2000/svg" xmlns:xlink="http://www.w3.org/1999/xlink" x="0" y="0" viewBox="0 0 483.5 483.5" xml:space="preserve"><path d="M430.75 471.2v-67.8c0-83.9-55-155.2-130.7-179.8 36.4-20.5 61.1-59.5 61.1-104.2 0-65.8-53.6-119.4-119.4-119.4s-119.4 53.6-119.4 119.4c0 44.7 24.7 83.7 61.1 104.2-75.8 24.6-130.7 95.9-130.7 179.8v67.8c0 6.8 5.5 12.3 12.3 12.3h353.6c6.6-.1 12.1-5.5 12.1-12.3zm-284-351.8c0-52.3 42.6-94.9 94.9-94.9s94.9 42.6 94.9 94.9-42.6 94.9-94.9 94.9-94.9-42.6-94.9-94.9zm259.5 339.5H77.05v-55.6c0-90.7 73.8-164.6 164.6-164.6s164.6 73.8 164.6 164.6v55.6z"/></svg>