<?xml version="1.0" encoding="iso-8859-1"?>
<!-- Generator: Adobe Illustrator 19.0.0, SVG Export Plug-In . SVG Version: 6.00 Build 0)  -->
<svg version="1.1" id="Capa_1" xmlns="http://www.w3.org/2000/svg" xmlns:xlink="http://www.w3.org/1999/xlink" x="0px" y="0px"
	 viewBox="0 0 512 512" style="enable-background:new 0 0 512 512;" xml:space="preserve">
<g>
	<g>
		<path d="M437.333,10.667H74.667C33.493,10.667,0,44.16,0,85.333V320c0,41.173,33.493,74.667,74.667,74.667h32v96
			c0,4.139,2.389,7.915,6.144,9.664c1.429,0.683,2.987,1.003,4.523,1.003c2.453,0,4.885-0.853,6.827-2.475l125.035-104.192h188.139
			C478.507,394.667,512,361.173,512,320V85.333C512,44.16,478.507,10.667,437.333,10.667z M384,277.333
			c0,3.947-2.176,7.552-5.632,9.408c-1.579,0.853-3.307,1.259-5.035,1.259c-2.069,0-4.139-0.597-5.909-1.792L320,254.592v22.741
			c0,5.888-4.779,10.667-10.667,10.667H160c-31.104,0-32-76.608-32-85.333s0.896-85.333,32-85.333h149.333
			c5.888,0,10.667,4.779,10.667,10.667v22.741l47.424-31.616c3.264-2.197,7.509-2.389,10.944-0.533
			c3.477,1.856,5.632,5.461,5.632,9.408V277.333z"/>
	</g>
</g>
<g>
</g>
<g>
</g>
<g>
</g>
<g>
</g>
<g>
</g>
<g>
</g>
<g>
</g>
<g>
</g>
<g>
</g>
<g>
</g>
<g>
</g>
<g>
</g>
<g>
</g>
<g>
</g>
<g>
</g>
</svg>
