<?xml version="1.0"?>
<svg xmlns="http://www.w3.org/2000/svg" xmlns:xlink="http://www.w3.org/1999/xlink" version="1.1" id="Layer_1" x="0px" y="0px" viewBox="0 0 512 512" style="enable-background:new 0 0 512 512;" xml:space="preserve" width="512px" height="512px" class=""><g><g>
	<g>
		<g>
			<path d="M490.667,0H21.333C9.551,0,0,9.551,0,21.333v341.333v128C0,502.449,9.551,512,21.333,512h469.333     c11.782,0,21.333-9.551,21.333-21.333v-128V21.333C512,9.551,502.449,0,490.667,0z M42.667,42.667h426.667v298.667H42.667V42.667     z M469.333,469.333H42.667V384h426.667V469.333z" data-original="#000000" class="active-path" data-old_color="#000000" fill="#FFFFFF"/>
			<path d="M331.834,174.25l-128-85.333c-14.177-9.451-33.167,0.712-33.167,17.75v170.667c0,17.039,18.99,27.202,33.167,17.75     l128-85.333C344.5,201.306,344.5,182.694,331.834,174.25z M213.333,237.472v-90.943L281.541,192L213.333,237.472z" data-original="#000000" class="active-path" data-old_color="#000000" fill="#FFFFFF"/>
			<path d="M234.667,448h192c11.782,0,21.333-9.551,21.333-21.333s-9.551-21.333-21.333-21.333h-192     c-11.782,0-21.333,9.551-21.333,21.333S222.885,448,234.667,448z" data-original="#000000" class="active-path" data-old_color="#000000" fill="#FFFFFF"/>
			<path d="M106.667,448h42.667c11.782,0,21.333-9.551,21.333-21.333s-9.551-21.333-21.333-21.333h-42.667     c-11.782,0-21.333,9.551-21.333,21.333S94.885,448,106.667,448z" data-original="#000000" class="active-path" data-old_color="#000000" fill="#FFFFFF"/>
		</g>
	</g>
</g></g> </svg>
