<svg width="200" height="140" viewBox="0 0 200 140" xmlns="http://www.w3.org/2000/svg" xmlns:xlink="http://www.w3.org/1999/xlink"><defs><path id="path-1" d="M0 0h200v140H0z"/></defs><g id="Calendar-Selection-Illustration" stroke="none" stroke-width="1" fill="none" fill-rule="evenodd"><g id="Illustration"><mask id="mask-2" fill="#fff"><use xlink:href="#path-1"/></mask><g id="Group" mask="url(#mask-2)"><g transform="rotate(-15 210.33 -18.638)"><path d="M136.656 9.71H9.69a3.325 3.325 0 00-2.665 1.347 3.37 3.37 0 00-.669.67c-.253.19-.477.416-.668.67-.253.19-.478.415-.668.67-.253.19-.478.415-.668.669-.254.19-.478.416-.669.67a3.36 3.36 0 00-.668.669 3.34 3.34 0 00-.668.67c-.253.19-.478.415-.668.67a3.336 3.336 0 00-1.345 2.67v127.232a3.345 3.345 0 003.341 3.348h126.967a3.325 3.325 0 002.665-1.347c.253-.191.478-.416.668-.67.254-.19.478-.416.669-.67a3.34 3.34 0 00.668-.67c.253-.19.478-.415.668-.669a3.34 3.34 0 00.668-.67 3.34 3.34 0 00.669-.669c.253-.19.477-.416.668-.67.253-.19.478-.415.668-.67a3.336 3.336 0 001.345-2.67V13.058a3.345 3.345 0 00-3.342-3.348" id="Fill-1" stroke="none" fill="#C9E0FF" fill-rule="evenodd"/><path d="M136.656 9.71H9.69a3.325 3.325 0 00-2.665 1.347 3.37 3.37 0 00-.669.67c-.253.19-.477.416-.668.67-.253.19-.478.415-.668.67-.253.19-.478.415-.668.669-.254.19-.478.416-.669.67a3.36 3.36 0 00-.668.669 3.34 3.34 0 00-.668.67c-.253.19-.478.415-.668.67a3.336 3.336 0 00-1.345 2.67v127.232a3.345 3.345 0 003.341 3.348h126.967a3.325 3.325 0 002.665-1.347c.253-.191.478-.416.668-.67.254-.19.478-.416.669-.67a3.34 3.34 0 00.668-.67c.253-.19.478-.415.668-.669a3.34 3.34 0 00.668-.67 3.34 3.34 0 00.669-.669c.253-.19.477-.416.668-.67.253-.19.478-.415.668-.67a3.336 3.336 0 001.345-2.67V13.058a3.345 3.345 0 00-3.342-3.348z" id="Stroke-3" stroke="#444752" stroke-width="2.009" fill="none"/><path d="M137.325 142.969H10.358a3.345 3.345 0 01-3.341-3.348V12.388a3.345 3.345 0 013.34-3.348h126.968c1.845 0 3.34 1.5 3.34 3.348v127.233a3.345 3.345 0 01-3.34 3.348" id="Fill-5" stroke="none" fill="#FFF" fill-rule="evenodd"/><path d="M33.746 35.826v107.143" id="Stroke-7" stroke="#96C6FF" stroke-width=".67" fill="none"/><path d="M140.666 62.612H7.016" id="Stroke-9" stroke="#96C6FF" stroke-width=".67" fill="none"/><path d="M140.666 89.397H7.016" id="Stroke-11" stroke="#96C6FF" stroke-width=".67" fill="none"/><path d="M140.666 116.183H7.016" id="Stroke-13" stroke="#96C6FF" stroke-width=".67" fill="none"/><path d="M60.476 35.826v107.143" id="Stroke-15" stroke="#96C6FF" stroke-width=".67" fill="none"/><path d="M87.206 35.826v107.143" id="Stroke-17" stroke="#96C6FF" stroke-width=".67" fill="none"/><path d="M113.936 35.826v107.143" id="Stroke-19" stroke="#96C6FF" stroke-width=".67" fill="none"/><path d="M140.666 35.826H7.016V12.388a3.345 3.345 0 013.342-3.348h126.967c1.845 0 3.34 1.5 3.34 3.348v23.438z" id="Fill-21" stroke="none" fill="#C9E0FF" fill-rule="evenodd"/><path d="M141.6 35.945H7.95" id="Stroke-9-Copy" stroke="#444752" stroke-width="2" fill="none"/><path d="M96.562 76.674c0 14.793-11.968 26.786-26.73 26.786s-26.73-11.993-26.73-26.786c0-14.793 11.968-26.786 26.73-26.786s26.73 11.993 26.73 26.786" id="Fill-23" stroke="none" fill="#C9E0FF" fill-rule="evenodd"/><path d="M137.325 142.969H10.358a3.345 3.345 0 01-3.341-3.348V12.388a3.345 3.345 0 013.34-3.348h126.968c1.845 0 3.34 1.5 3.34 3.348v127.233a3.345 3.345 0 01-3.34 3.348z" id="Stroke-25" stroke="#444752" stroke-width="2.009" fill="none"/><path d="M100.571 72.656c0 14.793-11.968 26.786-26.73 26.786s-26.73-11.993-26.73-26.786c0-14.793 11.968-26.785 26.73-26.785s26.73 11.992 26.73 26.785" id="Fill-27" stroke="#444752" stroke-width="2" fill="#FFF" fill-rule="evenodd"/><path d="M37.088 17.746a3.345 3.345 0 01-3.342 3.348 3.345 3.345 0 01-3.34-3.348 3.345 3.345 0 013.34-3.349c1.845 0 3.342 1.5 3.342 3.349" id="Fill-33" stroke="none" fill="#444752" fill-rule="evenodd"/><path d="M117.277 17.746a3.345 3.345 0 01-3.341 3.348 3.345 3.345 0 01-3.341-3.348 3.345 3.345 0 013.341-3.349c1.845 0 3.341 1.5 3.341 3.349" id="Fill-35" stroke="none" fill="#444752" fill-rule="evenodd"/><path d="M25.06 9.04c0-4.808 3.888-8.705 8.686-8.705s8.688 3.897 8.688 8.705-3.89 8.706-8.688 8.706" id="Stroke-37" stroke="#444752" stroke-width="2.009" fill="none"/><path d="M105.249 9.04c0-4.808 3.889-8.705 8.687-8.705s8.687 3.897 8.687 8.705-3.889 8.706-8.687 8.706" id="Stroke-39" stroke="#444752" stroke-width="2.009" fill="none"/></g></g></g></g></svg>